<?xml version="1.0" encoding="utf-8"?>
<!-- Generator: Adobe Illustrator 18.0.0, SVG Export Plug-In . SVG Version: 6.00 Build 0)  -->
<!DOCTYPE svg PUBLIC "-//W3C//DTD SVG 1.1//EN" "http://www.w3.org/Graphics/SVG/1.1/DTD/svg11.dtd">
<svg version="1.1" id="Layer_1" xmlns="http://www.w3.org/2000/svg" xmlns:xlink="http://www.w3.org/1999/xlink" x="0px" y="0px"
	 viewBox="0 0 270 170" enable-background="new 0 0 270 170" xml:space="preserve">
<g>
	<g>
		<g>
			<g>
				<rect x="137.43228" y="55.87283" fill="#E9FCFF" width="6.72115" height="3.62446"/>
			</g>
		</g>
		<g>
			<g>
				<rect x="142.63992" y="55.87283" fill="#E9FCFF" width="1.51352" height="3.62446"/>
			</g>
		</g>
		<g>
			<g>
				<rect x="137.43228" y="55.87283" fill="#E9FCFF" width="1.51346" height="3.62446"/>
			</g>
		</g>
		<g>
			<g>
				<rect x="154.72502" y="63.33744" fill="#E9FCFF" width="9.07722" height="50.43547"/>
			</g>
		</g>
		<g>
			<g>
				<rect x="135.90775" y="59.49429" fill="#E9FCFF" width="15.2639" height="14.4543"/>
			</g>
		</g>
		<g>
			<g>
				<rect x="135.90775" y="59.49429" fill="#E9FCFF" width="15.2639" height="14.4543"/>
			</g>
		</g>
		<g>
			<g>
				<rect x="135.9077" y="59.49429" fill="#E9FCFF" width="3.04261" height="14.4543"/>
			</g>
		</g>
		<g>
			<g>
				<rect x="142.92239" y="63.64218" fill="#E9FCFF" width="8.2492" height="10.30646"/>
			</g>
		</g>
		<g>
			<g>
				<rect x="145.42545" y="65.95602" fill="#E9FCFF" width="15.40899" height="47.81696"/>
			</g>
		</g>
		<g>
			<g>
				<rect x="157.61562" y="65.95947" fill="#E9FCFF" width="3.2162" height="47.81348"/>
			</g>
		</g>
		<g>
			<g>
				<rect x="145.4279" y="65.95947" fill="#E9FCFF" width="3.2162" height="47.81348"/>
			</g>
		</g>
		<g>
			<g>
				<rect x="116.19041" y="23.32122" fill="#E9FCFF" width="13.82582" height="90.45179"/>
			</g>
		</g>
		<g>
			<g>
				<rect x="127.38538" y="23.3179" fill="#E9FCFF" width="2.62871" height="90.45502"/>
			</g>
		</g>
		<g>
			<g>
				<rect x="116.1934" y="23.3179" fill="#E9FCFF" width="2.62871" height="90.45502"/>
			</g>
		</g>
		<g>
			<g>
				<rect x="130.01622" y="73.95364" fill="#E9FCFF" width="15.40923" height="39.81927"/>
			</g>
		</g>
		<g>
			<g>
				<rect x="130.01622" y="73.95364" fill="#E9FCFF" width="15.40923" height="39.81927"/>
			</g>
		</g>
		<g>
			<g>
				<rect x="142.33125" y="73.95416" fill="#E9FCFF" width="3.09664" height="39.81872"/>
			</g>
		</g>
		<g>
			<g>
				<rect x="130.01408" y="73.95416" fill="#E9FCFF" width="3.0967" height="39.81872"/>
			</g>
		</g>
		<g>
			<g>
				<rect x="89.46735" y="18.17933" fill="#E9FCFF" width="16.39959" height="7.79614"/>
			</g>
		</g>
		<g>
			<g>
				<rect x="103.50786" y="18.17933" fill="#E9FCFF" width="2.35987" height="7.79614"/>
			</g>
		</g>
		<g>
			<g>
				<rect x="89.46808" y="18.17933" fill="#E9FCFF" width="2.35987" height="7.79614"/>
			</g>
		</g>
		<g>
			<g>
				<rect x="87.83831" y="25.97599" fill="#E9FCFF" width="19.65766" height="87.79705"/>
			</g>
		</g>
		<g>
			<g>
				<rect x="87.83831" y="43.14452" fill="#E9FCFF" width="7.97584" height="70.62845"/>
			</g>
		</g>
		<g>
			<g>
				<rect x="103.72182" y="25.97599" fill="#E9FCFF" width="3.77416" height="87.79705"/>
			</g>
		</g>
		<g>
			<g>
				<rect x="42.70382" y="24.48844" fill="#E9FCFF" width="18.26159" height="21.50017"/>
			</g>
		</g>
		<g>
			<g>
				<rect x="56.93771" y="21.25822" fill="#E9FCFF" width="1.55333" height="4.12271"/>
			</g>
		</g>
		<g>
			<g>
				<rect x="45.17818" y="21.25822" fill="#E9FCFF" width="1.55333" height="4.12271"/>
			</g>
		</g>
		<g>
			<g>
				<rect x="58.83959" y="24.4865" fill="#E9FCFF" width="2.12084" height="21.4977"/>
			</g>
		</g>
		<g>
			<g>
				<rect x="42.69884" y="24.4865" fill="#E9FCFF" width="2.13087" height="21.4977"/>
			</g>
		</g>
		<g>
			<g>
				<rect x="46.7291" y="21.25737" fill="#E9FCFF" width="10.21097" height="4.12441"/>
			</g>
		</g>
		<g>
			<g>
				<rect x="48.49393" y="45.98431" fill="#E9FCFF" width="34.45798" height="67.7887"/>
			</g>
		</g>
		<g>
			<g>
				<rect x="36.91367" y="45.98431" fill="#E9FCFF" width="11.58027" height="67.7887"/>
			</g>
		</g>
		<g>
			<g>
				<rect x="36.91367" y="45.98431" fill="#E9FCFF" width="3.51459" height="67.7887"/>
			</g>
		</g>
		<g>
			<g>
				<rect x="82.9519" y="45.98431" fill="#E9FCFF" width="9.77281" height="67.7887"/>
			</g>
		</g>
		<g>
			<g>
				<rect x="89.21013" y="45.98431" fill="#E9FCFF" width="3.51459" height="67.7887"/>
			</g>
		</g>
		<g>
			<g>
				<polygon fill="#E9FCFF" points="11.21396,113.77296 11.21396,29.1359 36.91367,31.25743 36.91367,113.77296 				"/>
			</g>
		</g>
		<g>
			<g>
				<polygon fill="#E9FCFF" points="11.21396,113.77296 11.21396,29.1359 14.8727,29.43795 14.8727,113.77296 				"/>
			</g>
		</g>
		<g>
			<g>
				<rect x="11.21396" y="76.93208" fill="#E9FCFF" width="8.07685" height="36.84091"/>
			</g>
		</g>
		<g>
			<g>
				<polygon fill="#E9FCFF" points="34.08245,113.77296 34.08245,31.02374 36.91367,31.25743 36.91367,113.77296 				"/>
			</g>
		</g>
		<g>
			<g>
				<polygon fill="#E9FCFF" points="30.47256,30.72575 30.47256,41.61887 11.21397,41.61887 11.21397,29.13589 				"/>
			</g>
		</g>
		<g>
			<g>
				<polygon fill="#E9FCFF" points="27.54494,30.48405 30.47256,30.72575 30.47256,41.61887 27.54494,41.61887 				"/>
			</g>
		</g>
		<g>
			<g>
				<rect x="27.54495" y="41.61877" fill="#E9FCFF" width="2.92758" height="72.15407"/>
			</g>
		</g>
		<g>
			<g>
				<polygon fill="#E9FCFF" points="14.59017,29.4146 14.59017,41.61887 11.21397,41.61887 11.21397,29.13589 				"/>
			</g>
		</g>
		<g>
			<g>
				<rect x="14.49986" y="78.85312" fill="#E9FCFF" width="2.10096" height="34.91975"/>
			</g>
		</g>
		<g>
			<g>
				<rect x="10.13638" y="78.85312" fill="#E9FCFF" width="6.46243" height="34.91975"/>
			</g>
		</g>
		<g>
			<g>
				<rect x="43.76426" y="70.15047" fill="#E9FCFF" width="31.02682" height="43.62241"/>
			</g>
		</g>
		<g>
			<g>
				<rect x="70.96749" y="70.15047" fill="#E9FCFF" width="3.82359" height="43.62241"/>
			</g>
		</g>
		<g>
			<g>
				<rect x="43.76426" y="70.15047" fill="#E9FCFF" width="3.82353" height="43.62241"/>
			</g>
		</g>
		<g>
			<g>
				<rect x="46.7291" y="21.25737" fill="#E9FCFF" width="10.21097" height="4.12441"/>
			</g>
		</g>
		<g>
			<g>
				<rect x="84.73692" y="75.36976" fill="#E9FCFF" width="13.80805" height="3.74632"/>
			</g>
		</g>
		<g>
			<g>
				<rect x="95.62306" y="75.37153" fill="#E9FCFF" width="2.92625" height="3.74523"/>
			</g>
		</g>
		<g>
			<g>
				<rect x="84.73692" y="75.37153" fill="#E9FCFF" width="2.92631" height="3.74523"/>
			</g>
		</g>
		<g>
			<g>
				<rect x="80.60688" y="79.11614" fill="#E9FCFF" width="32.08713" height="34.65688"/>
			</g>
		</g>
		<g>
			<g>
				<rect x="109.85084" y="79.11672" fill="#E9FCFF" width="2.848" height="34.65621"/>
			</g>
		</g>
		<g>
			<g>
				<rect x="80.60719" y="79.11672" fill="#E9FCFF" width="2.84787" height="34.65621"/>
			</g>
		</g>
		<g>
			<g>
				<rect x="80.60687" y="83.38786" fill="#E9FCFF" width="19.21909" height="5.02947"/>
			</g>
		</g>
		<g>
			<g>
				<line fill="#E9FCFF" x1="95.9473" y1="83.38779" x2="95.9473" y2="88.41725"/>
			</g>
		</g>
		<g>
			<g>
				<line fill="#E9FCFF" x1="92.26692" y1="83.38779" x2="92.26692" y2="88.41725"/>
			</g>
		</g>
		<g>
			<g>
				<line fill="#E9FCFF" x1="88.58655" y1="83.38779" x2="88.58655" y2="88.41725"/>
			</g>
		</g>
		<g>
			<g>
				<line fill="#E9FCFF" x1="84.90617" y1="83.38779" x2="84.90617" y2="88.41725"/>
			</g>
		</g>
		<g>
			<g>
				<rect x="90.21642" y="97.96174" fill="#E9FCFF" width="22.4776" height="5.88219"/>
			</g>
		</g>
		<g>
			<g>
				<line fill="#E9FCFF" x1="108.14219" y1="97.96172" x2="108.14219" y2="103.84391"/>
			</g>
		</g>
		<g>
			<g>
				<line fill="#E9FCFF" x1="103.70362" y1="97.96172" x2="103.70362" y2="103.84391"/>
			</g>
		</g>
		<g>
			<g>
				<line fill="#E9FCFF" x1="99.26505" y1="97.96172" x2="99.26505" y2="103.84391"/>
			</g>
		</g>
		<g>
			<g>
				<line fill="#E9FCFF" x1="94.82648" y1="97.96172" x2="94.82648" y2="103.84391"/>
			</g>
		</g>
		<g>
			<g>
				<rect x="85.41162" y="110.12152" fill="#E9FCFF" width="22.47765" height="3.65148"/>
			</g>
		</g>
		<g>
			<g>
				<polygon fill="#E9FCFF" points="105.70823,113.77296 105.70823,112.29574 85.40985,112.29574 85.40985,110.12093 
					107.88316,110.12093 107.88316,113.77296 				"/>
			</g>
		</g>
	</g>
	<g>
		<g>
			<g>
				<g>
					<g>
						<path fill="#B8F8FF" d="M41.42716,52.11934h-9.23145c-0.9873,0-1.78809-0.80078-1.78809-1.78857
							s0.80078-1.78857,1.78809-1.78857h9.23145c0.9873,0,1.78809,0.80078,1.78809,1.78857S42.41447,52.11934,41.42716,52.11934z"/>
					</g>
				</g>
				<g>
					<g>
						<path fill="#B8F8FF" d="M26.3715,52.11934h-3.19824c-0.9873,0-1.78809-0.80078-1.78809-1.78857
							s0.80078-1.78857,1.78809-1.78857h3.19824c0.9873,0,1.78809,0.80078,1.78809,1.78857S27.3588,52.11934,26.3715,52.11934z"/>
					</g>
				</g>
			</g>
		</g>
		<g>
			<g>
				<g>
					<g>
						<path fill="#B8F8FF" d="M88.69083,31.50606h-9.23145c-0.9873,0-1.78809-0.80078-1.78809-1.78857
							s0.80078-1.78857,1.78809-1.78857h9.23145c0.9873,0,1.78809,0.80078,1.78809,1.78857S89.67814,31.50606,88.69083,31.50606z"/>
					</g>
				</g>
				<g>
					<g>
						<path fill="#B8F8FF" d="M97.71329,31.50606h-3.19824c-0.9873,0-1.78809-0.80078-1.78809-1.78857
							s0.80078-1.78857,1.78809-1.78857h3.19824c0.9873,0,1.78809,0.80078,1.78809,1.78857S98.7006,31.50606,97.71329,31.50606z"/>
					</g>
				</g>
			</g>
		</g>
		<g>
			<g>
				<g>
					<g>
						<path fill="#B8F8FF" d="M178.44182,46.94063h-9.23047c-0.9873,0-1.78809-0.80078-1.78809-1.78857
							s0.80078-1.78857,1.78809-1.78857h9.23047c0.9873,0,1.78809,0.80078,1.78809,1.78857S179.42912,46.94063,178.44182,46.94063z"
							/>
					</g>
				</g>
				<g>
					<g>
						<path fill="#B8F8FF" d="M163.38615,46.94063h-3.19824c-0.9873,0-1.78809-0.80078-1.78809-1.78857
							s0.80078-1.78857,1.78809-1.78857h3.19824c0.9873,0,1.78809,0.80078,1.78809,1.78857S164.37346,46.94063,163.38615,46.94063z"
							/>
					</g>
				</g>
			</g>
		</g>
		<g>
			<g>
				<g>
					<g>
						<path fill="#B8F8FF" d="M216.03264,21.64913h-9.23145c-0.9873,0-1.78809-0.80078-1.78809-1.78857
							s0.80078-1.78857,1.78809-1.78857h9.23145c0.9873,0,1.78809,0.80078,1.78809,1.78857S217.01994,21.64913,216.03264,21.64913z"
							/>
					</g>
				</g>
				<g>
					<g>
						<path fill="#B8F8FF" d="M200.97697,21.64913h-3.19824c-0.9873,0-1.78809-0.80078-1.78809-1.78857
							s0.80078-1.78857,1.78809-1.78857h3.19824c0.9873,0,1.78809,0.80078,1.78809,1.78857S201.96428,21.64913,200.97697,21.64913z"
							/>
					</g>
				</g>
			</g>
		</g>
	</g>
	<g>
		<g>
			<path fill="#9B796E" d="M262.91605,81.51514v32.25781H148.84009v-9.77539c-0.22784-0.08916-0.48535-0.09908-0.72305-0.18818
				c-0.45555-2.25818-0.76257-4.89265-1.21819-7.15083c7.87381-9.86449,15.7377-19.72904,23.60159-29.60345
				c1.09935-1.37669,2.4958-2.88214,4.24886-2.74347c2.04025,0.16835,3.11984,2.38687,4.45688,3.94183
				c3.49619,4.0805,10.17157,3.92206,14.76704,1.12908c4.58563-2.79298,7.58661-7.51727,10.44893-12.06324
				c0.83191-1.3371,1.69357-2.68404,2.59488-3.98149c2.18878-3.14951,4.67473-6.06133,7.96292-7.97282
				c5.77412-3.36744,13.5786-2.83257,18.85747,1.27761c4.15974,3.23868,6.55659,8.22043,8.49777,13.13291
				c1.11917,2.84249,2.14919,5.76422,3.43677,8.5176c0.931,2.02042,2.0006,3.95174,3.35747,5.72457
				C252.33841,78.21705,257.70645,82.38671,262.91605,81.51514z"/>
		</g>
	</g>
	<g>
		<g>
			<path fill="#FFFFFF" d="M245.77196,68.29313c-0.59428,2.4463-1.28758,4.87283-1.97098,7.29935
				c-1.17853,4.13992-2.34727,8.27985-3.52586,12.41978c-1.56482-6.59614-3.12968-13.19233-4.70447-19.78847
				c-2.18878,7.62614-4.37762,15.25235-6.56641,22.87856c-0.48535-8.79488-0.97064-17.57986-1.46585-26.37475
				c-3.10991,6.80415-6.22969,13.6182-9.34952,20.42235c0.04951-8.48786,0.09908-16.97572,0.15851-25.46352
				c-3.03067,4.21912-6.06134,8.42838-9.09201,12.63764c0.73291-1.0201-0.01982-4.91241-0.09908-6.19009
				c-0.12875-2.12936-0.36644-4.25877-0.6933-6.36835c-0.3367-2.16901-1.04984-4.33802-1.44597-6.42778
				c2.18878-3.14951,4.67473-6.06133,7.96292-7.97282c5.77412-3.36744,13.5786-2.83257,18.85747,1.27761
				c4.15974,3.23868,6.55659,8.22043,8.49777,13.13291C243.45436,62.61802,244.48438,65.53975,245.77196,68.29313z"/>
		</g>
	</g>
	<g>
		<g>
			<rect x="174.04654" y="67.60685" fill="#C38DCB" width="10.76969" height="46.16325"/>
		</g>
	</g>
	<g>
		<g>
			<rect x="174.04732" y="67.60685" fill="#AD76B7" width="1.89334" height="46.16325"/>
		</g>
	</g>
	<g>
		<g>
			<rect x="182.92368" y="67.60685" fill="#CE9DD6" width="1.8934" height="46.16325"/>
		</g>
	</g>
	<g>
		<g>
			<polygon fill="#E0E0E0" points="224.27988,113.77296 224.27988,83.61134 216.27602,75.60754 216.27602,95.83685 
				213.61389,95.83685 213.61389,80.87315 208.68887,80.87315 208.68887,85.97258 204.58855,85.97258 204.58855,77.96493 
				196.04355,86.50993 196.04355,96.16179 190.10065,96.16179 190.10065,113.77296 			"/>
		</g>
	</g>
	<g>
		<g>
			<g>
				<polygon fill="#D28382" points="128.66685,34.44493 121.28687,24.99492 113.90688,34.44493 				"/>
			</g>
		</g>
		<g>
			<g>
				<polygon fill="#BC6F6F" points="113.90662,34.44021 121.28796,24.99479 117.39751,34.44021 				"/>
			</g>
		</g>
		<g>
			<g>
				<polygon fill="#E59A9A" points="128.66928,34.44021 125.17834,34.44021 121.28796,24.99479 				"/>
			</g>
		</g>
		<g>
			<g>
				<rect x="113.90688" y="34.44485" fill="#E0E0E0" width="14.75998" height="2.89594"/>
			</g>
		</g>
		<g>
			<g>
				<rect x="113.90662" y="34.44029" fill="#D1D1D1" width="2.10218" height="2.90115"/>
			</g>
		</g>
		<g>
			<g>
				<rect x="126.56712" y="34.44029" fill="#EFEFEF" width="2.10218" height="2.90115"/>
			</g>
		</g>
		<g>
			<g>
				<rect x="111.57502" y="37.34083" fill="#8BD7BF" width="19.42368" height="76.43211"/>
			</g>
		</g>
		<g>
			<g>
				<rect x="111.57508" y="67.49555" fill="#73C6AA" width="14.05461" height="46.27745"/>
			</g>
		</g>
		<g>
			<g>
				<rect x="111.57619" y="37.34132" fill="#73C6AA" width="2.2353" height="76.43161"/>
			</g>
		</g>
		<g>
			<g>
				<rect x="128.76439" y="37.34132" fill="#ACE8D2" width="2.2353" height="76.43161"/>
			</g>
		</g>
		<g>
			<g>
				<path fill="#FFECCD" d="M126.56826,60.3717V44.80243c0-2.91686-2.36455-5.2814-5.2814-5.2814
					c-2.91681,0-5.2814,2.36454-5.2814,5.2814V60.3717H126.56826z"/>
			</g>
		</g>
		<g>
			<g>
				<path fill="#FFECCD" d="M126.56826,60.3717V44.80243c0-2.91686-2.36455-5.2814-5.2814-5.2814
					c-2.91681,0-5.2814,2.36454-5.2814,5.2814V60.3717H126.56826z"/>
			</g>
		</g>
		<g>
			<g>
				<path fill="#EDD5B2" d="M125.83467,42.12593c-0.77999-0.46608-1.70263-0.73244-2.6824-0.73244
					c-2.91068,0-5.27916,2.35896-5.27916,5.27916v13.69732h-1.86431V44.79881c0-2.91067,2.35896-5.27916,5.27915-5.27916
					C123.22839,39.51965,124.92155,40.56595,125.83467,42.12593z"/>
			</g>
		</g>
	</g>
	<g>
		<g>
			<g>
				<rect x="102.98403" y="76.15041" fill="#E0E0E0" width="20.17041" height="37.62253"/>
			</g>
		</g>
		<g>
			<g>
				<rect x="102.98402" y="76.15271" fill="#D1D1D1" width="2.73309" height="37.62035"/>
			</g>
		</g>
		<g>
			<g>
				<rect x="120.42073" y="76.15271" fill="#EFEFEF" width="2.73315" height="37.62035"/>
			</g>
		</g>
		<g>
			<g>
				<g>
					<path fill="#9B796E" d="M123.15386,73.46581v2.68681h-20.16985v-2.68681c0-2.10448,1.70077-3.80521,3.79858-3.80521h12.57269
						C121.45309,69.66061,123.15386,71.36134,123.15386,73.46581z"/>
				</g>
			</g>
			<g>
				<g>
					<path fill="#8C6A61" d="M109.51573,69.66061c-2.09782,0-3.79858,1.70073-3.79858,3.80521v2.68681h-2.73314v-2.68681
						c0-2.10448,1.70077-3.80521,3.79858-3.80521H109.51573z"/>
				</g>
			</g>
			<g>
				<g>
					<path fill="#A5847E" d="M123.15447,73.46581v2.68681h-2.73314v-2.68681c0-2.10448-0.86662-3.80521-2.96443-3.80521h1.89899
						C121.4537,69.66061,123.15447,71.36134,123.15447,73.46581z"/>
				</g>
			</g>
		</g>
	</g>
	<g>
		<g>
			<g>
				<rect x="76.74834" y="39.30072" fill="#FFD37E" width="10.42937" height="3.04406"/>
			</g>
		</g>
		<g>
			<g>
				<rect x="76.74833" y="39.30072" fill="#EFC16F" width="2.05589" height="3.04406"/>
			</g>
		</g>
		<g>
			<g>
				<rect x="85.12187" y="39.30072" fill="#FFE1B0" width="2.05583" height="3.04406"/>
			</g>
		</g>
		<g>
			<g>
				<rect x="71.08365" y="42.34468" fill="#C38DCB" width="17.73524" height="71.42831"/>
			</g>
		</g>
		<g>
			<g>
				<rect x="71.08365" y="42.34468" fill="#AD76B7" width="2.67357" height="71.42831"/>
			</g>
		</g>
		<g>
			<g>
				<rect x="86.15421" y="42.34468" fill="#CE9DD6" width="2.66468" height="71.42831"/>
			</g>
		</g>
		<g>
			<g>
				<g>
					<polygon fill="#51B5E9" points="88.81889,113.77296 88.81889,52.0828 81.07094,52.0828 81.07094,59.90208 76.06167,59.90208 
						76.06167,65.29668 71.08365,65.29668 71.08365,113.77296 					"/>
				</g>
			</g>
			<g>
				<g>
					<polygon fill="#41AAD8" points="83.43119,113.77296 83.43119,67.69544 73.07721,67.69544 73.07721,65.29668 71.08365,65.29668 
						71.08365,113.77296 					"/>
				</g>
			</g>
			<g>
				<g>
					<rect x="86.97333" y="52.0829" fill="#69CAF4" width="1.84556" height="61.69015"/>
				</g>
			</g>
		</g>
	</g>
	<g>
		<g>
			<g>
				<rect x="61.84558" y="77.63464" fill="#E0E0E0" width="4.34206" height="36.13844"/>
			</g>
		</g>
		<g>
			<g>
				<rect x="61.84558" y="77.63464" fill="#E0E0E0" width="4.34206" height="36.13844"/>
			</g>
		</g>
		<g>
			<g>
				<rect x="61.84552" y="77.63437" fill="#D1D1D1" width="1.57281" height="36.1385"/>
			</g>
		</g>
		<g>
			<g>
				<rect x="64.81998" y="77.63437" fill="#EFEFEF" width="1.36766" height="36.1385"/>
			</g>
		</g>
		<g>
			<g>
				<rect x="75.97773" y="69.66062" fill="#9B796E" width="5.83056" height="44.11235"/>
			</g>
		</g>
		<g>
			<g>
				<rect x="75.98071" y="69.66216" fill="#8C6A61" width="1.53529" height="44.11073"/>
			</g>
		</g>
		<g>
			<g>
				<rect x="80.26897" y="69.66216" fill="#A5847E" width="1.53529" height="44.11073"/>
			</g>
		</g>
		<g>
			<g>
				<rect x="66.18764" y="73.67345" fill="#E0E0E0" width="9.79009" height="40.09939"/>
			</g>
		</g>
		<g>
			<g>
				<rect x="66.18665" y="73.6768" fill="#D1D1D1" width="1.93236" height="40.0961"/>
			</g>
		</g>
		<g>
			<g>
				<rect x="74.04836" y="73.6768" fill="#EFEFEF" width="1.93236" height="40.0961"/>
			</g>
		</g>
		<g>
			<g>
				<rect x="61.84555" y="77.63452" fill="#D28382" width="4.34211" height="4.26758"/>
			</g>
		</g>
		<g>
			<g>
				<rect x="61.84555" y="77.63445" fill="#BC6F6F" width="1.57276" height="4.34976"/>
			</g>
		</g>
		<g>
			<g>
				<rect x="64.81997" y="77.63445" fill="#E59A9A" width="1.36768" height="4.34976"/>
			</g>
		</g>
		<g>
			<g>
				<rect x="75.97767" y="69.66051" fill="#E0E0E0" width="5.83059" height="12.24146"/>
			</g>
		</g>
		<g>
			<g>
				<rect x="75.98069" y="69.66216" fill="#D1D1D1" width="1.4294" height="12.23818"/>
			</g>
		</g>
		<g>
			<g>
				<rect x="80.37482" y="69.66216" fill="#EFEFEF" width="1.4294" height="12.23818"/>
			</g>
		</g>
		<g>
			<g>
				<rect x="66.18766" y="73.67358" fill="#D28382" width="9.79002" height="8.22851"/>
			</g>
		</g>
		<g>
			<g>
				<rect x="66.18766" y="73.67358" fill="#BC6F6F" width="2.00392" height="8.22851"/>
			</g>
		</g>
		<g>
			<g>
				<rect x="74.04468" y="73.67358" fill="#E59A9A" width="1.93299" height="8.22851"/>
			</g>
		</g>
		<g>
			<g>
				<path fill="#FFFFFF" d="M78.89298,87.10177c-0.27637,0-0.5-0.22363-0.5-0.5v-2.01709c0-0.27637,0.22363-0.5,0.5-0.5
					s0.5,0.22363,0.5,0.5v2.01709C79.39298,86.87814,79.16935,87.10177,78.89298,87.10177z"/>
			</g>
		</g>
		<g>
			<g>
				<path fill="#FFFFFF" d="M78.89298,92.43624c-0.27637,0-0.5-0.22363-0.5-0.5v-2.01709c0-0.27637,0.22363-0.5,0.5-0.5
					s0.5,0.22363,0.5,0.5v2.01709C79.39298,92.21261,79.16935,92.43624,78.89298,92.43624z"/>
			</g>
		</g>
		<g>
			<g>
				<path fill="#FFFFFF" d="M78.89298,97.77071c-0.27637,0-0.5-0.22363-0.5-0.5v-2.0166c0-0.27637,0.22363-0.5,0.5-0.5
					s0.5,0.22363,0.5,0.5v2.0166C79.39298,97.54708,79.16935,97.77071,78.89298,97.77071z"/>
			</g>
		</g>
		<g>
			<g>
				<path fill="#FFFFFF" d="M78.89298,103.10567c-0.27637,0-0.5-0.22363-0.5-0.5v-2.01709c0-0.27637,0.22363-0.5,0.5-0.5
					s0.5,0.22363,0.5,0.5v2.01709C79.39298,102.88204,79.16935,103.10567,78.89298,103.10567z"/>
			</g>
		</g>
		<g>
			<g>
				<path fill="#FFFFFF" d="M78.89298,108.44015c-0.27637,0-0.5-0.22363-0.5-0.5v-2.01709c0-0.27637,0.22363-0.5,0.5-0.5
					s0.5,0.22363,0.5,0.5v2.01709C79.39298,108.21651,79.16935,108.44015,78.89298,108.44015z"/>
			</g>
		</g>
	</g>
	<g>
		<g>
			<g>
				<rect x="86.15421" y="87.53902" fill="#D28382" width="30.81951" height="26.23396"/>
			</g>
		</g>
		<g>
			<g>
				<rect x="86.15421" y="87.54109" fill="#BC6F6F" width="2.73315" height="26.23179"/>
			</g>
		</g>
		<g>
			<g>
				<rect x="114.23994" y="87.54109" fill="#E59A9A" width="2.73315" height="26.23179"/>
			</g>
		</g>
		<g>
			<g>
				<g>
					<path fill="#9B796E" d="M116.9731,84.85439v2.68681H86.15421v-2.68681c0-2.10448,1.70077-3.80521,3.79858-3.80521h23.22173
						C115.27233,81.04917,116.9731,82.7499,116.9731,84.85439z"/>
				</g>
			</g>
			<g>
				<g>
					<path fill="#8C6A61" d="M92.68593,81.04917c-2.09782,0-3.79859,1.70073-3.79859,3.80521v2.68681h-2.73313v-2.68681
						c0-2.10448,1.70077-3.80521,3.79858-3.80521H92.68593z"/>
				</g>
			</g>
			<g>
				<g>
					<path fill="#A5847E" d="M116.97371,84.85439v2.68681h-2.73314v-2.68681c0-2.10448-1.70077-3.80521-3.79858-3.80521h2.73314
						C115.27294,81.04917,116.97371,82.7499,116.97371,84.85439z"/>
				</g>
			</g>
		</g>
	</g>
	<g opacity="0.1">
		<g>
			<rect x="133.67195" y="84.50784" width="1.70639" height="29.26509"/>
		</g>
	</g>
	<g>
		<g>
			<g>
				<rect x="181.21237" y="84.50784" fill="#F98D5D" width="11.8971" height="29.26509"/>
			</g>
		</g>
		<g opacity="0.1">
			<g>
				<rect x="181.21231" y="84.50784" width="1.70645" height="29.26509"/>
			</g>
		</g>
		<g opacity="0.1">
			<g>
				<rect x="191.40302" y="84.50784" fill="#FFFFFF" width="1.70645" height="29.26509"/>
			</g>
		</g>
		<g>
			<g>
				<rect x="169.31522" y="81.9004" fill="#FFECCD" width="11.89716" height="31.87255"/>
			</g>
		</g>
		<g>
			<g>
				<rect x="133.67294" y="84.50784" fill="#F98D5D" width="11.8971" height="29.26509"/>
			</g>
		</g>
		<g opacity="0.1">
			<g>
				<rect x="143.86259" y="84.50784" fill="#FFFFFF" width="1.70645" height="29.26509"/>
			</g>
		</g>
		<g>
			<g>
				<rect x="145.57259" y="81.90037" fill="#FFECCD" width="11.84553" height="31.87261"/>
			</g>
		</g>
		<g>
			<g>
				<rect x="145.57159" y="81.90477" fill="#EDD5B2" width="2.23673" height="31.8682"/>
			</g>
		</g>
		<g>
			<g>
				<rect x="155.24165" y="81.90477" fill="#FFF4E3" width="2.17647" height="31.8682"/>
			</g>
		</g>
		<g>
			<g>
				<rect x="169.31522" y="81.90477" fill="#EDD5B2" width="2.23673" height="31.8682"/>
			</g>
		</g>
		<g>
			<g>
				<rect x="178.98526" y="81.90477" fill="#FFF4E3" width="2.2271" height="31.8682"/>
			</g>
		</g>
		<g>
			<g>
				<rect x="157.41812" y="75.12148" fill="#E0E0E0" width="11.8971" height="38.65158"/>
			</g>
		</g>
		<g>
			<g>
				<rect x="157.41806" y="74.85703" fill="#D1D1D1" width="2.05357" height="38.91582"/>
			</g>
		</g>
		<g>
			<g>
				<rect x="167.26157" y="74.85703" fill="#EFEFEF" width="2.05357" height="38.91582"/>
			</g>
		</g>
		<g>
			<g>
				<rect x="133.67192" y="87.31965" fill="#FFFFFF" width="11.89712" height="2.50718"/>
			</g>
		</g>
		<g>
			<g>
				<rect x="133.67192" y="92.47126" fill="#FFFFFF" width="11.89712" height="2.50718"/>
			</g>
		</g>
		<g>
			<g>
				<rect x="133.67192" y="97.62287" fill="#FFFFFF" width="11.89712" height="2.50718"/>
			</g>
		</g>
		<g>
			<g>
				<rect x="133.67192" y="102.77448" fill="#FFFFFF" width="11.89712" height="2.50718"/>
			</g>
		</g>
		<g>
			<g>
				<rect x="133.67192" y="107.92609" fill="#FFFFFF" width="11.89712" height="2.50718"/>
			</g>
		</g>
		<g>
			<g>
				<rect x="181.21234" y="87.31965" fill="#FFFFFF" width="11.89712" height="2.50718"/>
			</g>
		</g>
		<g>
			<g>
				<rect x="181.21234" y="92.47126" fill="#FFFFFF" width="11.89712" height="2.50718"/>
			</g>
		</g>
		<g>
			<g>
				<rect x="181.21234" y="97.62287" fill="#FFFFFF" width="11.89712" height="2.50718"/>
			</g>
		</g>
		<g>
			<g>
				<rect x="181.21234" y="102.77448" fill="#FFFFFF" width="11.89712" height="2.50718"/>
			</g>
		</g>
		<g>
			<g>
				<rect x="181.21234" y="107.92609" fill="#FFFFFF" width="11.89712" height="2.50718"/>
			</g>
		</g>
	</g>
	<g>
		<g>
			<polygon fill="#F1B996" points="35.96514,113.77296 35.96514,66.26497 21.94376,60.66006 21.94376,113.77296 			"/>
		</g>
	</g>
	<g>
		<g>
			<polygon fill="#F1B996" points="35.96514,113.77296 35.96514,66.26497 21.94376,60.66006 21.94376,113.77296 			"/>
		</g>
	</g>
	<g>
		<g>
			<rect x="21.94376" y="70.3603" fill="#E2A27F" width="12.01396" height="43.41271"/>
		</g>
	</g>
	<g>
		<g>
			<rect x="7.0865" y="72.74073" fill="#8BD7BF" width="25.20857" height="41.03221"/>
		</g>
	</g>
	<g>
		<g>
			<rect x="7.08588" y="72.73578" fill="#73C6AA" width="2.78919" height="41.03724"/>
		</g>
	</g>
	<g>
		<g>
			<rect x="29.51098" y="72.73578" fill="#ACE8D2" width="2.78913" height="41.03724"/>
		</g>
	</g>
	<g>
		<path fill="#685665" d="M79.79044,133.11055c-0.17285-4.27051-3.35449-6.40624-7.91797-6.40624
			c-2.80078,0-6.77734,1.19043-6.77734,5.32128c0,4.02539,4.21875,4.72461,8.40234,5.56543
			c4.21777,0.83984,8.43652,2.03027,8.43652,6.93066c0,5.18066-4.91016,7.03516-8.67871,7.03516
			c-5.77441,0-10.51172-2.41504-10.40723-8.85547h1.52051c-0.27637,5.45996,3.97656,7.52539,8.88672,7.52539
			c2.93848,0,7.15723-1.36523,7.15723-5.70508c0-4.2002-4.21875-5.00586-8.43652-5.8457
			c-4.18359-0.83984-8.40234-1.92578-8.40234-6.65039c0-4.79589,4.3916-6.65136,8.29883-6.65136
			c5.15137,0,9.16211,2.24023,9.43945,7.73632H79.79044z"/>
		<path fill="#685665" d="M104.30021,149.63203v1.33008H87.53068v-24.99218h16.59668v1.33008h-15.0752v10.01073h14.17578v1.33008
			H89.05216v10.99121H104.30021z"/>
		<path fill="#685665" d="M117.95353,125.96993l9.75098,24.99218h-1.62598l-3.11133-8.01563h-11.8252l-3.14648,8.01563h-1.625
			l9.92285-24.99218H117.95353z M122.48283,141.61641l-5.29004-14.14159h-0.06934l-5.49707,14.14159H122.48283z"/>
		<path fill="#685665" d="M127.14689,127.30001v-1.33008h18.91309v1.33008h-8.71289v23.6621h-1.52148v-23.6621H127.14689z"/>
		<path fill="#685665" d="M147.16252,127.30001v-1.33008h18.91309v1.33008h-8.71289v23.6621h-1.52148v-23.6621H147.16252z"/>
		<path fill="#685665" d="M169.84123,125.96993h1.52148v23.6621h14.00293v1.33008h-15.52441V125.96993z"/>
		<path fill="#685665" d="M205.96916,149.63203v1.33008h-16.76953v-24.99218h16.59668v1.33008h-15.0752v10.01073h14.17676v1.33008
			h-14.17676v10.99121H205.96916z"/>
	</g>
	<g>
		<g>
			<g>
				<path fill="#FFECCD" d="M48.69899,46.95145v66.82151h10.58827c-9.43744-19.04357-9.68298-61.12285-3.25914-79.7187h-7.32914
					v0.01019h7.24768C52.8013,36.05955,50.43968,41.72944,48.69899,46.95145z"/>
			</g>
		</g>
		<g>
			<g>
				<path fill="#FFF4E3" d="M59.28944,113.77296c-9.43943-19.03158-9.68565-61.11601-3.26131-79.7133H54.1246
					c-6.42434,18.59729-6.17812,60.68172,3.26131,79.7133H59.28944z"/>
			</g>
		</g>
		<g>
			<g>
				<path fill="#FFECCD" d="M34.29354,113.77296h10.58821V46.68678c-1.7305-5.15074-4.06154-10.65773-7.15604-12.62234h7.15604
					v-0.01019h-7.32913C43.97645,52.65011,43.73092,94.72939,34.29354,113.77296z"/>
			</g>
		</g>
		<g>
			<g>
				<path fill="#EDD5B2" d="M34.29136,113.77296h1.91347c9.4298-19.03158,9.68571-61.11601,3.25131-79.7133h-1.90353
					C43.97695,52.65694,43.73073,94.74138,34.29136,113.77296z"/>
			</g>
		</g>
		<g>
			<g>
				<polygon fill="#9B796E" points="44.50345,18.17626 46.79136,4.91026 49.07927,18.17626 				"/>
			</g>
		</g>
		<g>
			<g>
				<polygon fill="#A5847E" points="49.07563,18.17445 47.1721,18.17445 45.8386,10.44837 46.79546,4.91081 				"/>
			</g>
		</g>
		<g>
			<g>
				<polygon fill="#FFECCD" points="33.25658,24.59512 44.68908,20.51999 42.30807,18.17934 51.27456,18.17934 48.90307,20.51999 
					60.32611,24.59512 				"/>
			</g>
		</g>
		<g>
			<g>
				<polygon fill="#EDD5B2" points="44.86137,18.17445 45.88949,20.51575 40.97292,24.59767 33.25697,24.59767 44.68834,20.51575 
					42.30641,18.17445 				"/>
			</g>
		</g>
		<g>
			<g>
				<polygon fill="#FFF4E3" points="60.32378,24.59767 52.60789,24.59767 47.70144,20.51575 48.71938,18.17445 51.27439,18.17445 
					48.9026,20.51575 				"/>
			</g>
		</g>
		<g>
			<g>
				<polygon fill="#E0E0E0" points="60.32338,24.5989 58.65632,34.05472 34.92637,34.05472 33.25931,24.5989 				"/>
			</g>
			<g>
				<path fill="#E0E0E0" d="M59.07658,34.55489H34.50626l-1.53489-8.70906c-0.16063-0.91144,0.54054-1.74699,1.46603-1.74699
					h24.70803c0.92549,0,1.62666,0.83555,1.46603,1.74699L59.07658,34.55489z M35.34611,33.55489h22.89063l1.49121-8.45605H33.8549
					L35.34611,33.55489z"/>
			</g>
		</g>
		<g>
			<g>
				<polygon fill="#D1D1D1" points="36.42272,24.56241 37.69514,34.01899 34.89582,34.01899 33.22639,24.56241 				"/>
			</g>
		</g>
		<g>
			<g>
				<polygon fill="#EFEFEF" points="60.29327,24.56241 58.62384,34.01899 55.81434,34.01899 57.08676,24.56241 				"/>
			</g>
		</g>
		<g>
			<g>
				<rect x="45.17369" y="34.05468" fill="#51B5E9" width="3.23528" height="79.71827"/>
			</g>
		</g>
		<g>
			<g>
				<rect x="46.79547" y="34.05961" fill="#69CAF4" width="1.61854" height="79.7133"/>
			</g>
		</g>
		<g>
			<g>
				<rect x="42.77741" y="96.3262" fill="#FFD37E" width="8.02787" height="4.2309"/>
			</g>
		</g>
		<g>
			<g>
				<rect x="42.77462" y="96.32681" fill="#EFC16F" width="2.10713" height="4.23458"/>
			</g>
		</g>
	</g>
	<g>
		<g>
			<rect x="202.3942" y="95.63731" fill="#80C46E" width="43.95653" height="18.13554"/>
		</g>
	</g>
	<g>
		<g>
			<rect x="202.3942" y="95.63731" fill="#80C46E" width="43.95653" height="18.13554"/>
		</g>
	</g>
	<g>
		<g>
			<rect x="242.26823" y="95.63731" fill="#94D182" width="4.08248" height="18.13554"/>
		</g>
	</g>
	<g>
		<g>
			<rect x="202.3942" y="95.63731" fill="#71B25F" width="2.63592" height="18.13554"/>
		</g>
	</g>
	<g>
		<g>
			<rect x="220.37427" y="90.50965" fill="#8BD7BF" width="16.90947" height="5.12767"/>
		</g>
	</g>
	<g>
		<g>
			<rect x="220.37349" y="90.5088" fill="#73C6AA" width="2.76875" height="5.13036"/>
		</g>
	</g>
	<g>
		<g>
			<rect x="234.51259" y="90.5088" fill="#ACE8D2" width="2.76875" height="5.13036"/>
		</g>
	</g>
	<g>
		<g>
			<rect x="244.72801" y="87.31975" fill="#D7F7FF" width="13.82815" height="26.45328"/>
		</g>
	</g>
	<g>
		<g>
			<rect x="244.73262" y="87.32273" fill="#B8F8FF" width="2.35142" height="26.45024"/>
		</g>
	</g>
	<g>
		<g>
			<rect x="256.19455" y="87.32273" fill="#E9FCFF" width="2.36161" height="26.45024"/>
		</g>
	</g>
	<g>
		<g>
			<g>
				<path fill="#FFFFFF" d="M205.39299,100.98116c-0.27637,0-0.5-0.22363-0.5-0.5v-2.37158c0-0.27637,0.22363-0.5,0.5-0.5
					s0.5,0.22363,0.5,0.5v2.37158C205.89299,100.75753,205.66936,100.98116,205.39299,100.98116z"/>
			</g>
		</g>
		<g>
			<g>
				<path fill="#FFFFFF" d="M207.82756,100.98116c-0.27637,0-0.5-0.22363-0.5-0.5v-2.37158c0-0.27637,0.22363-0.5,0.5-0.5
					s0.5,0.22363,0.5,0.5v2.37158C208.32756,100.75753,208.10393,100.98116,207.82756,100.98116z"/>
			</g>
		</g>
		<g>
			<g>
				<path fill="#FFFFFF" d="M210.26213,100.98116c-0.27637,0-0.5-0.22363-0.5-0.5v-2.37158c0-0.27637,0.22363-0.5,0.5-0.5
					s0.5,0.22363,0.5,0.5v2.37158C210.76213,100.75753,210.5385,100.98116,210.26213,100.98116z"/>
			</g>
		</g>
		<g>
			<g>
				<path fill="#FFFFFF" d="M212.6967,100.98116c-0.27637,0-0.5-0.22363-0.5-0.5v-2.37158c0-0.27637,0.22363-0.5,0.5-0.5
					s0.5,0.22363,0.5,0.5v2.37158C213.1967,100.75753,212.97307,100.98116,212.6967,100.98116z"/>
			</g>
		</g>
	</g>
	<g>
		<g>
			<g>
				<path fill="#FFFFFF" d="M205.39299,111.488c-0.27637,0-0.5-0.22363-0.5-0.5v-7.65869c0-0.27637,0.22363-0.5,0.5-0.5
					s0.5,0.22363,0.5,0.5v7.65869C205.89299,111.26437,205.66936,111.488,205.39299,111.488z"/>
			</g>
		</g>
		<g>
			<g>
				<path fill="#FFFFFF" d="M207.82756,111.488c-0.27637,0-0.5-0.22363-0.5-0.5v-7.65869c0-0.27637,0.22363-0.5,0.5-0.5
					s0.5,0.22363,0.5,0.5v7.65869C208.32756,111.26437,208.10393,111.488,207.82756,111.488z"/>
			</g>
		</g>
		<g>
			<g>
				<path fill="#FFFFFF" d="M210.26213,111.488c-0.27637,0-0.5-0.22363-0.5-0.5v-7.65869c0-0.27637,0.22363-0.5,0.5-0.5
					s0.5,0.22363,0.5,0.5v7.65869C210.76213,111.26437,210.5385,111.488,210.26213,111.488z"/>
			</g>
		</g>
		<g>
			<g>
				<path fill="#FFFFFF" d="M212.6967,111.488c-0.27637,0-0.5-0.22363-0.5-0.5v-7.65869c0-0.27637,0.22363-0.5,0.5-0.5
					s0.5,0.22363,0.5,0.5v7.65869C213.1967,111.26437,212.97307,111.488,212.6967,111.488z"/>
			</g>
		</g>
	</g>
	<g>
		<g>
			<g>
				<path fill="#FFFFFF" d="M215.26604,100.98116c-0.27637,0-0.5-0.22363-0.5-0.5v-2.37158c0-0.27637,0.22363-0.5,0.5-0.5
					s0.5,0.22363,0.5,0.5v2.37158C215.76604,100.75753,215.5424,100.98116,215.26604,100.98116z"/>
			</g>
		</g>
		<g>
			<g>
				<path fill="#FFFFFF" d="M217.70061,100.98116c-0.27637,0-0.5-0.22363-0.5-0.5v-2.37158c0-0.27637,0.22363-0.5,0.5-0.5
					s0.5,0.22363,0.5,0.5v2.37158C218.20061,100.75753,217.97697,100.98116,217.70061,100.98116z"/>
			</g>
		</g>
		<g>
			<g>
				<path fill="#FFFFFF" d="M220.13518,100.98116c-0.27637,0-0.5-0.22363-0.5-0.5v-2.37158c0-0.27637,0.22363-0.5,0.5-0.5
					s0.5,0.22363,0.5,0.5v2.37158C220.63518,100.75753,220.41154,100.98116,220.13518,100.98116z"/>
			</g>
		</g>
		<g>
			<g>
				<path fill="#FFFFFF" d="M222.56975,100.98116c-0.27637,0-0.5-0.22363-0.5-0.5v-2.37158c0-0.27637,0.22363-0.5,0.5-0.5
					s0.5,0.22363,0.5,0.5v2.37158C223.06975,100.75753,222.84612,100.98116,222.56975,100.98116z"/>
			</g>
		</g>
	</g>
	<g>
		<g>
			<g>
				<path fill="#FFFFFF" d="M215.26604,111.488c-0.27637,0-0.5-0.22363-0.5-0.5v-7.65869c0-0.27637,0.22363-0.5,0.5-0.5
					s0.5,0.22363,0.5,0.5v7.65869C215.76604,111.26437,215.5424,111.488,215.26604,111.488z"/>
			</g>
		</g>
		<g>
			<g>
				<path fill="#FFFFFF" d="M217.70061,111.488c-0.27637,0-0.5-0.22363-0.5-0.5v-7.65869c0-0.27637,0.22363-0.5,0.5-0.5
					s0.5,0.22363,0.5,0.5v7.65869C218.20061,111.26437,217.97697,111.488,217.70061,111.488z"/>
			</g>
		</g>
		<g>
			<g>
				<path fill="#FFFFFF" d="M220.13518,111.488c-0.27637,0-0.5-0.22363-0.5-0.5v-7.65869c0-0.27637,0.22363-0.5,0.5-0.5
					s0.5,0.22363,0.5,0.5v7.65869C220.63518,111.26437,220.41154,111.488,220.13518,111.488z"/>
			</g>
		</g>
		<g>
			<g>
				<path fill="#FFFFFF" d="M222.56975,111.488c-0.27637,0-0.5-0.22363-0.5-0.5v-7.65869c0-0.27637,0.22363-0.5,0.5-0.5
					s0.5,0.22363,0.5,0.5v7.65869C223.06975,111.26437,222.84612,111.488,222.56975,111.488z"/>
			</g>
		</g>
	</g>
	<g>
		<g>
			<g>
				<path fill="#FFFFFF" d="M225.13908,100.98116c-0.27637,0-0.5-0.22363-0.5-0.5v-2.37158c0-0.27637,0.22363-0.5,0.5-0.5
					s0.5,0.22363,0.5,0.5v2.37158C225.63908,100.75753,225.41545,100.98116,225.13908,100.98116z"/>
			</g>
		</g>
		<g>
			<g>
				<path fill="#FFFFFF" d="M227.57365,100.98116c-0.27637,0-0.5-0.22363-0.5-0.5v-2.37158c0-0.27637,0.22363-0.5,0.5-0.5
					s0.5,0.22363,0.5,0.5v2.37158C228.07365,100.75753,227.85002,100.98116,227.57365,100.98116z"/>
			</g>
		</g>
		<g>
			<g>
				<path fill="#FFFFFF" d="M230.00822,100.98116c-0.27637,0-0.5-0.22363-0.5-0.5v-2.37158c0-0.27637,0.22363-0.5,0.5-0.5
					s0.5,0.22363,0.5,0.5v2.37158C230.50822,100.75753,230.28459,100.98116,230.00822,100.98116z"/>
			</g>
		</g>
		<g>
			<g>
				<path fill="#FFFFFF" d="M232.44182,100.98116c-0.27637,0-0.5-0.22363-0.5-0.5v-2.37158c0-0.27637,0.22363-0.5,0.5-0.5
					s0.5,0.22363,0.5,0.5v2.37158C232.94182,100.75753,232.71819,100.98116,232.44182,100.98116z"/>
			</g>
		</g>
	</g>
	<g>
		<g>
			<g>
				<path fill="#FFFFFF" d="M225.13908,111.488c-0.27637,0-0.5-0.22363-0.5-0.5v-7.65869c0-0.27637,0.22363-0.5,0.5-0.5
					s0.5,0.22363,0.5,0.5v7.65869C225.63908,111.26437,225.41545,111.488,225.13908,111.488z"/>
			</g>
		</g>
		<g>
			<g>
				<path fill="#FFFFFF" d="M227.57365,111.488c-0.27637,0-0.5-0.22363-0.5-0.5v-7.65869c0-0.27637,0.22363-0.5,0.5-0.5
					s0.5,0.22363,0.5,0.5v7.65869C228.07365,111.26437,227.85002,111.488,227.57365,111.488z"/>
			</g>
		</g>
		<g>
			<g>
				<path fill="#FFFFFF" d="M230.00822,111.488c-0.27637,0-0.5-0.22363-0.5-0.5v-7.65869c0-0.27637,0.22363-0.5,0.5-0.5
					s0.5,0.22363,0.5,0.5v7.65869C230.50822,111.26437,230.28459,111.488,230.00822,111.488z"/>
			</g>
		</g>
		<g>
			<g>
				<path fill="#FFFFFF" d="M232.44182,111.488c-0.27637,0-0.5-0.22363-0.5-0.5v-7.65869c0-0.27637,0.22363-0.5,0.5-0.5
					s0.5,0.22363,0.5,0.5v7.65869C232.94182,111.26437,232.71819,111.488,232.44182,111.488z"/>
			</g>
		</g>
	</g>
	<g>
		<g>
			<g>
				<path fill="#FFFFFF" d="M235.01213,100.98116c-0.27637,0-0.5-0.22363-0.5-0.5v-2.37158c0-0.27637,0.22363-0.5,0.5-0.5
					s0.5,0.22363,0.5,0.5v2.37158C235.51213,100.75753,235.2885,100.98116,235.01213,100.98116z"/>
			</g>
		</g>
		<g>
			<g>
				<path fill="#FFFFFF" d="M237.4467,100.98116c-0.27637,0-0.5-0.22363-0.5-0.5v-2.37158c0-0.27637,0.22363-0.5,0.5-0.5
					s0.5,0.22363,0.5,0.5v2.37158C237.9467,100.75753,237.72307,100.98116,237.4467,100.98116z"/>
			</g>
		</g>
		<g>
			<g>
				<path fill="#FFFFFF" d="M239.88029,100.98116c-0.27637,0-0.5-0.22363-0.5-0.5v-2.37158c0-0.27637,0.22363-0.5,0.5-0.5
					s0.5,0.22363,0.5,0.5v2.37158C240.38029,100.75753,240.15666,100.98116,239.88029,100.98116z"/>
			</g>
		</g>
		<g>
			<g>
				<path fill="#FFFFFF" d="M242.31487,100.98116c-0.27637,0-0.5-0.22363-0.5-0.5v-2.37158c0-0.27637,0.22363-0.5,0.5-0.5
					s0.5,0.22363,0.5,0.5v2.37158C242.81487,100.75753,242.59123,100.98116,242.31487,100.98116z"/>
			</g>
		</g>
	</g>
	<g>
		<g>
			<g>
				<path fill="#FFFFFF" d="M235.01213,111.488c-0.27637,0-0.5-0.22363-0.5-0.5v-7.65869c0-0.27637,0.22363-0.5,0.5-0.5
					s0.5,0.22363,0.5,0.5v7.65869C235.51213,111.26437,235.2885,111.488,235.01213,111.488z"/>
			</g>
		</g>
		<g>
			<g>
				<path fill="#FFFFFF" d="M237.4467,111.488c-0.27637,0-0.5-0.22363-0.5-0.5v-7.65869c0-0.27637,0.22363-0.5,0.5-0.5
					s0.5,0.22363,0.5,0.5v7.65869C237.9467,111.26437,237.72307,111.488,237.4467,111.488z"/>
			</g>
		</g>
		<g>
			<g>
				<path fill="#FFFFFF" d="M239.88029,111.488c-0.27637,0-0.5-0.22363-0.5-0.5v-7.65869c0-0.27637,0.22363-0.5,0.5-0.5
					s0.5,0.22363,0.5,0.5v7.65869C240.38029,111.26437,240.15666,111.488,239.88029,111.488z"/>
			</g>
		</g>
		<g>
			<g>
				<path fill="#FFFFFF" d="M242.31487,111.488c-0.27637,0-0.5-0.22363-0.5-0.5v-7.65869c0-0.27637,0.22363-0.5,0.5-0.5
					s0.5,0.22363,0.5,0.5v7.65869C242.81487,111.26437,242.59123,111.488,242.31487,111.488z"/>
			</g>
		</g>
	</g>
	<g>
		<g>
			<path fill="#685665" d="M85.2172,13.36446h2.53809c0.24316,0,0.4502-0.17432,0.49219-0.41357
				c0.125-0.70801,0.7373-1.22168,1.45703-1.22168c0.27637,0,0.49805-0.31592,0.49805-0.59229
				c0-1.14014,0.92676-2.06738,2.06641-2.06738s2.06738,0.92725,2.06738,2.06738l-0.00391,0.12402
				c-0.00586,0.15771,0.0625,0.30957,0.18457,0.40869c0.12207,0.09961,0.28125,0.13672,0.4375,0.09766
				c0.09863-0.0249,0.20703-0.03809,0.31348-0.03809c0.6582,0,1.21094,0.51465,1.25879,1.17139
				c0.01953,0.26172,0.2373,0.46387,0.49902,0.46387h3.20703c0.27637,0,0.5-0.22363,0.5-0.5s-0.22363-0.5-0.5-0.5h-2.79102
				c-0.27148-0.93408-1.13086-1.6167-2.13281-1.63477c-0.19922-1.49951-1.48633-2.66016-3.04004-2.66016
				c-1.54395,0-2.8252,1.14697-3.03613,2.7041c-0.85547,0.16406-1.56445,0.76855-1.86035,1.59082H85.2172
				c-0.27637,0-0.5,0.22363-0.5,0.5S84.94083,13.36446,85.2172,13.36446z"/>
		</g>
		<g>
			<path fill="#685665" d="M9.26408,26.25606h2.20215c0.24316,0,0.45117-0.1748,0.49219-0.41406
				c0.10156-0.58203,0.60547-1.00439,1.19824-1.00439c0.27637,0,0.49805-0.30371,0.49805-0.58008
				c0-0.95215,0.77441-1.72656,1.72656-1.72656s1.72656,0.77441,1.72656,1.72656l-0.00293,0.10303
				c-0.00781,0.1582,0.06055,0.31055,0.18262,0.41064c0.12207,0.09961,0.28613,0.13623,0.43848,0.09766
				c0.58496-0.14697,1.2373,0.30029,1.28125,0.92285c0.01855,0.26172,0.23633,0.46436,0.49902,0.46436h2.78223
				c0.27637,0,0.5-0.22363,0.5-0.5s-0.22363-0.5-0.5-0.5h-2.37207c-0.25195-0.79541-0.9834-1.37646-1.84082-1.4165
				c-0.20117-1.30566-1.33301-2.30859-2.69434-2.30859c-1.35742,0-2.48633,0.99658-2.69238,2.35547
				c-0.73047,0.15625-1.33398,0.67139-1.60156,1.36963H9.26408c-0.27637,0-0.5,0.22363-0.5,0.5S8.98771,26.25606,9.26408,26.25606z"
				/>
		</g>
		<g>
			<path fill="#685665" d="M161.23869,32.08272h2.20215c0.24316,0,0.45117-0.1748,0.49219-0.41406
				c0.10156-0.58203,0.60547-1.00439,1.19824-1.00439c0.27637,0,0.49805-0.30371,0.49805-0.58008
				c0-0.95215,0.77441-1.72705,1.72656-1.72705s1.72656,0.7749,1.72656,1.72705l-0.00293,0.10254
				c-0.00781,0.15771,0.05957,0.31006,0.18164,0.41016c0.12207,0.09912,0.2832,0.13525,0.4375,0.09863
				c0.5957-0.15088,1.23926,0.2998,1.2832,0.92285c0.01855,0.26172,0.23633,0.46436,0.49902,0.46436h2.78223
				c0.27637,0,0.5-0.22363,0.5-0.5s-0.22363-0.5-0.5-0.5h-2.37207c-0.25195-0.79541-0.9834-1.37695-1.84082-1.4165
				c-0.20117-1.30615-1.33301-2.30908-2.69434-2.30908c-1.35742,0-2.48633,0.99707-2.69238,2.35596
				c-0.73047,0.15625-1.33398,0.67139-1.60156,1.36963h-1.82324c-0.27637,0-0.5,0.22363-0.5,0.5
				S160.96233,32.08272,161.23869,32.08272z"/>
		</g>
		<g>
			<path fill="#685665" d="M232.57658,25.69991c1.54395,0,2.7998,1.36426,2.7998,3.0415c0,0.27637,0.22363,0.5,0.5,0.5
				s0.5-0.22363,0.5-0.5c0-1.67725,1.25684-3.0415,2.80078-3.0415c0.27637,0,0.5-0.22363,0.5-0.5s-0.22363-0.5-0.5-0.5
				c-1.42175,0-2.64893,0.84424-3.30066,2.07672c-0.65149-1.23248-1.87817-2.07672-3.29993-2.07672c-0.27637,0-0.5,0.22363-0.5,0.5
				S232.30022,25.69991,232.57658,25.69991z"/>
		</g>
		<g>
			<path fill="#685665" d="M240.7885,32.21944c1.0166,0,1.84375,0.9043,1.84375,2.01563c0,0.27637,0.22363,0.5,0.5,0.5
				s0.5-0.22363,0.5-0.5c0-1.11133,0.82715-2.01563,1.84473-2.01563c0.27637,0,0.5-0.22363,0.5-0.5s-0.22363-0.5-0.5-0.5
				c-0.97253,0-1.8313,0.52161-2.34448,1.31335c-0.51294-0.79175-1.37146-1.31335-2.34399-1.31335c-0.27637,0-0.5,0.22363-0.5,0.5
				S240.51213,32.21944,240.7885,32.21944z"/>
		</g>
		<g>
			<path fill="#685665" d="M262.91641,113.27316h-3.86304V87.32436c0-0.27997-0.21997-0.5-0.5-0.5h-13.82994
				c-0.2699,0-0.5,0.22003-0.5,0.5v7.81305h-6.44006v-4.62305c0-0.27997-0.21997-0.5-0.5-0.5h-12.50366v-6.40283
				c0-0.13281-0.05273-0.25977-0.14648-0.35352l-3.4491-3.4491c1.99097-4.34509,3.9823-8.69086,5.96863-13.03479
				c0.43494,7.745,0.86255,15.48334,1.29004,23.229h1.39697l5.68604-19.81201c1.42676,5.979,2.84473,11.95801,4.2627,17.93652
				c0.05273,0.22168,0.24805,0.37939,0.47559,0.38477h0.01074c0.22266,0,0.41992-0.14795,0.48047-0.36328
				c3.05688-10.81063,4.13748-14.43098,5.16138-18.41986c3.2863,6.54276,10.12221,13.4497,17.08177,12.27924
				c0.27246-0.04541,0.45703-0.30322,0.41113-0.57568s-0.30664-0.45898-0.5752-0.41064
				c-5.06055,0.84863-10.32713-3.4082-13.3076-7.30811c-6.23605-8.14759-6.76363-20.75612-15.38184-27.46582
				c-5.46484-4.25488-13.4502-4.79492-19.41602-1.31543c-11.30995,6.57426-14.55855,27.67507-29.41309,25.86621v-3.19238
				c0-0.27637-0.22363-0.5-0.5-0.5h-5.87183c-0.08057-0.10126-0.16138-0.20154-0.24048-0.30762
				c-1.04297-1.39502-2.12109-2.83789-3.91504-2.98584c-1.92285-0.14941-3.45215,1.39502-4.67871,2.93018
				c-2.09351,2.62878-4.18933,5.2536-6.2832,7.88098h-6.41309c-0.27002,0-0.5,0.22003-0.5,0.5v6.28003h-11.34009
				c-0.28003,0-0.5,0.21997-0.5,0.5v2.09998h-11.3999c-0.28003,0-0.5,0.23004-0.5,0.5v28.77002h-1.67004v-29.94h0.31995
				c0.28003,0,0.5-0.22998,0.5-0.5c0-0.28003-0.21997-0.5-0.5-0.5h-0.31995V60.87441h0.31995c0.28003,0,0.5-0.23004,0.5-0.5
				c0-0.28003-0.21997-0.5-0.5-0.5h-0.31995V37.34438c0-0.27997-0.22998-0.5-0.5-0.5h-1.83997v-2.42999
				c0-0.02002-0.01001-0.03998-0.02002-0.06c-0.01001-0.07001-0.03003-0.13-0.07007-0.17999
				c-0.01001-0.01001,0-0.03003-0.01001-0.04004l-7.37989-9.44995c-0.19006-0.24005-0.6001-0.24005-0.79004,0l-7.38,9.44995
				c-0.01001,0.01001-0.01001,0.03003-0.02002,0.04004c-0.02991,0.04999-0.05994,0.10999-0.06995,0.17999
				c0,0.02002-0.01001,0.03998-0.01001,0.06c0,0.01001-0.01001,0.02002-0.01001,0.02997v2.40002h-1.83008
				c-0.28003,0-0.5,0.22003-0.5,0.5v22.53003h-0.31995c-0.66003,0-0.66003,1,0,1h0.31995v8.28998h-4.29004
				c-2.36987,0-4.29993,1.92999-4.29993,4.29999v7.08002H89.95353c-0.21008,0-0.43005,0.01996-0.63013,0.04999v-38.25
				c0-0.27997-0.22998-0.5-0.5-0.5h-1.13989v-2.54999c0-0.27002-0.22998-0.5-0.5-0.5H76.74345c-0.27002,0-0.5,0.22998-0.5,0.5
				v2.54999h-5.16003c-0.28003,0-0.5,0.22003-0.5,0.5V73.1744h-4.3999c-0.27002,0-0.5,0.21997-0.5,0.5v3.45996h-3.84009
				c-0.27002,0-0.5,0.22003-0.5,0.5v35.64001h-1.73999c-9.12-18.78998-9.54004-59.91999-3.20996-78.71997h2.26001
				c0.25,0,0.44995-0.17004,0.5-0.41003l0.76001-4.32001h3.28003c0.27991,0,0.5-0.21997,0.5-0.5c0-0.26996-0.22009-0.5-0.5-0.5
				h-3.11011l0.72998-4.13l0.01001-0.00995c0.04004-0.24005-0.12988-0.49005-0.32996-0.56l-10.67004-3.81l1.80005-1.78003
				c0.15002-0.14001,0.18994-0.35999,0.10999-0.53998c-0.06995-0.19-0.26001-0.31-0.45996-0.31h-1.77002L47.28336,4.82436
				c-0.03992-0.23999-0.25-0.40997-0.48999-0.40997c-0.25,0-0.44995,0.16998-0.5,0.40997l-2.20996,12.86005h-1.78003
				c-0.19995,0-0.37988,0.12-0.45996,0.31c-0.07996,0.17999-0.03003,0.39996,0.11011,0.53998l1.81995,1.78003l-10.69006,3.81
				c-0.19995,0.06995-0.35999,0.31995-0.31995,0.56c0,0,0,0.00995,0.01001,0.00995l0.71997,4.13h-3.10999
				c-0.27002,0-0.5,0.23004-0.5,0.5c0,0.28003,0.22998,0.5,0.5,0.5h3.29004l0.76001,4.32001
				c0.03992,0.23999,0.25,0.41003,0.48999,0.41003h2.27002c5.67993,16.90997,5.91992,51.89997-0.72998,72.42999V66.26437
				c0-0.19995-0.12012-0.38995-0.31006-0.45996l-14.02002-5.61005c-0.16003-0.06-0.33008-0.03998-0.46997,0.05005
				c-0.14001,0.08997-0.21997,0.25-0.21997,0.41998v11.57996H7.08341c-0.27002,0-0.5,0.22003-0.5,0.5v41.03003
				c0,0.27002,0.20996,0.47998,0.45996,0.5c75.24798,0,180.53009,0,255.8701,0v-0.00122h0.00293c0.27637,0,0.5-0.22363,0.5-0.5
				S263.19278,113.27316,262.91641,113.27316z M180.71355,82.40438v30.86877H169.8134V82.40438H180.71355z M192.61345,85.00436
				v1.82001h-10.8999v-1.82001H192.61345z M193.61345,96.66183h2.42993c0.27637,0,0.5-0.22363,0.5-0.5V86.717l7.54492-7.54492
				v6.80029c0,0.27637,0.22363,0.5,0.5,0.5h4.10059c0.27637,0,0.5-0.22363,0.5-0.5v-4.59912h3.9248v13.76416h-10.71973
				c-0.27637,0-0.5,0.22363-0.5,0.5v17.63574h-8.28052V96.66183z M192.61345,87.82436v1.5h-10.8999v-1.5H192.61345z
				 M192.61345,90.32436v1.65002h-10.8999v-1.65002H192.61345z M192.61345,92.97439v1.5h-10.8999v-1.5H192.61345z
				 M192.61345,95.47439v1.64996h-10.8999v-1.64996H192.61345z M192.61345,98.12435v1.51001h-10.8999v-1.51001H192.61345z
				 M192.61345,100.63436v1.64001h-10.8999v-1.64001H192.61345z M192.61345,103.27438v1.51001h-10.8999v-1.51001H192.61345z
				 M192.61345,105.78439v1.64001h-10.8999v-1.64001H192.61345z M192.61345,108.4244v1.50995h-10.8999v-1.50995H192.61345z
				 M192.61345,110.93435v2.33881h-10.8999v-2.33881H192.61345z M258.05338,87.82436v25.44879h-12.82994V87.82436H258.05338z
				 M244.22343,113.27316c-6.57011,0-31.0338,0-41.32947,0V96.13741h41.32947V113.27316z M236.78337,95.13436h-15.90991v-4.12
				h15.90991V95.13436z M223.77971,90.01437h-3.40625c-0.28003,0-0.5,0.22003-0.5,0.5v4.62305h-3.09766V76.81466l7.00391,7.00391
				V90.01437z M233.53069,47.03731c6.50191,5.06211,8.41368,14.18032,11.71387,21.30762
				c-0.8026,3.28119-1.7195,6.3653-4.92676,17.68408c-1.41602-5.97363-2.83398-11.94775-4.26074-17.92139
				c-0.05273-0.2207-0.24805-0.37842-0.47461-0.38379c-0.25488,0-0.42969,0.14355-0.49219,0.3623l-5.75,20.03271
				c-0.43066-7.80762-0.86328-15.60986-1.30273-23.41943c-0.0127-0.22949-0.18066-0.42041-0.40625-0.46289
				c-0.03125-0.00586-0.0625-0.00879-0.09277-0.00879c-0.19336,0-0.37207,0.11182-0.45508,0.29199
				c-2.21338,4.84247-4.43311,9.68988-6.65308,14.53546l-1.69373-1.69379c0.03479-5.89081,0.06946-11.78131,0.11047-17.67176
				c0.00195-0.21777-0.1377-0.41162-0.34473-0.479c-0.20898-0.06689-0.43457,0.00684-0.56152,0.18408
				c-2.62305,3.65283-5.24805,7.29834-7.87207,10.94287c-0.00293-0.11363-0.6815-9.43129-1.91797-14.31934
				c-0.22339-0.88702-0.43506-1.7287-0.60205-2.56641c2.07404-2.96524,4.52585-5.81924,7.68311-7.65479
				C220.85588,42.5168,228.37932,43.02706,233.53069,47.03731z M206.77458,54.58162
				c2.24944,9.75284,1.41286,8.05487,2.02563,12.87708c0.17285,1.38135,0.49609,3.95215,0.04883,4.57324
				c-0.16113,0.22412-0.11035,0.53662,0.11426,0.69775c0.22168,0.16016,0.53418,0.10986,0.69824-0.11377
				c2.67711-3.7189,5.43332-7.54719,8.1748-11.36133c-0.03467,5.03742-0.06396,10.07526-0.09351,15.11298l-1.11353-1.11346
				c-0.14258-0.14307-0.35742-0.18506-0.54492-0.1084c-0.18652,0.07715-0.30859,0.25977-0.30859,0.46191v19.52979h-1.66211V80.87325
				c0-0.27637-0.22363-0.5-0.5-0.5h-4.9248c-0.27637,0-0.5,0.22363-0.5,0.5v4.59912h-3.10059v-7.50732
				c0-0.20215-0.12207-0.38477-0.30859-0.46191c-0.18555-0.07813-0.40137-0.03418-0.54492,0.1084l-8.54492,8.54492
				c-0.09375,0.09375-0.14648,0.2207-0.14648,0.35352v9.15186h-1.92993V84.50436c0-0.26996-0.22998-0.5-0.5-0.5h-7.79761V71.79812
				C196.31815,73.01765,201.74957,62.09003,206.77458,54.58162z M184.31584,84.00436h-2.60229v-2.09998
				c0-0.28003-0.22009-0.5-0.5-0.5h-6.66724V68.10665h9.76953V84.00436z M170.89104,67.36691
				c1.11523-1.39697,2.34473-2.68945,3.81738-2.55664c1.23901,0.10229,2.1001,1.13696,2.97388,2.29639h-3.63599
				c-0.27637,0-0.5,0.22363-0.5,0.5v13.79773h-3.73291v-6.28003c0-0.27997-0.21997-0.5-0.5-0.5h-4.20825
				C167.03325,72.2048,168.9633,69.78756,170.89104,67.36691z M134.17351,85.00436h10.8999v1.82001h-10.8999V85.00436z
				 M134.17351,87.82436h10.8999v1.5h-10.8999V87.82436z M134.17351,90.32436h10.8999v1.65002h-10.8999V90.32436z
				 M134.17351,92.97439h10.8999v1.5h-10.8999V92.97439z M134.17351,95.47439h10.8999v1.64996h-10.8999V95.47439z
				 M134.17351,98.12435h10.8999v1.51001h-10.8999V98.12435z M134.17351,100.63436h10.8999v1.64001h-10.8999V100.63436z
				 M134.17351,103.27438h10.8999v1.51001h-10.8999V103.27438z M134.17351,105.78439h10.8999v1.64001h-10.8999V105.78439z
				 M134.17351,108.4244h10.8999v1.50995h-10.8999V108.4244z M123.65348,76.10439h6.84998v2.07001h-6.84998V76.10439z
				 M123.65348,75.10439v-1.64001c0-0.14001-0.01001-0.28003-0.02002-0.41998h6.87v2.06H123.65348z M123.40348,72.0444
				c-0.29004-0.84003-0.83008-1.54999-1.53003-2.06h8.63001v2.06H123.40348z M123.65348,79.1744h6.84998v3.15997h-6.84998V79.1744z
				 M121.28336,25.8044l6.36011,8.13995h-12.70996L121.28336,25.8044z M114.40348,34.94436h13.76002v1.90002h-13.76002V34.94436z
				 M112.0734,37.84438h18.43006v22.03003h-3.44007V44.8044c0-3.19-2.60986-5.78003-5.78003-5.78003
				c-2.95996,0-5.77991,2.37-5.77991,5.78003v15.07001h-3.43005V37.84438z M124.53336,57.00435v-1.46997h1.53003v1.46997H124.53336z
				 M126.06339,58.00435v1.87006h-1.53003v-1.87006H126.06339z M124.53336,54.53438v-1.46997h1.53003v1.46997H124.53336z
				 M124.53336,52.06441v-1.47003h1.53003v1.47003H124.53336z M124.53336,49.59438v-1.46997h1.53003v1.46997H124.53336z
				 M124.53336,47.12441v-1.47003h1.53003v1.47003H124.53336z M125.76347,43.18441c0.17004,0.45996,0.2699,0.94995,0.28992,1.46997
				h-1.52002v-1.46997H125.76347z M124.53336,42.18441v-0.87c0.28003,0.25995,0.53003,0.54999,0.74011,0.87H124.53336z
				 M121.98344,57.00435v-1.46997h1.54993v1.46997H121.98344z M123.53336,58.00435v1.87006h-1.54993v-1.87006H123.53336z
				 M121.98344,54.53438v-1.46997h1.54993v1.46997H121.98344z M121.98344,52.06441v-1.47003h1.54993v1.47003H121.98344z
				 M121.98344,49.59438v-1.46997h1.54993v1.46997H121.98344z M121.98344,47.12441v-1.47003h1.54993v1.47003H121.98344z
				 M121.98344,44.65438v-1.46997h1.54993v1.46997H121.98344z M121.98344,42.18441v-2.09003
				c0.55994,0.08002,1.06995,0.26001,1.54993,0.51001v1.58002H121.98344z M119.44352,57.00435v-1.46997h1.53992v1.46997H119.44352z
				 M120.98344,58.00435v1.87006h-1.53992v-1.87006H120.98344z M119.44352,54.53438v-1.46997h1.53992v1.46997H119.44352z
				 M119.44352,52.06441v-1.47003h1.53992v1.47003H119.44352z M119.44352,49.59438v-1.46997h1.53992v1.46997H119.44352z
				 M119.44352,47.12441v-1.47003h1.53992v1.47003H119.44352z M119.44352,44.65438v-1.46997h1.53992v1.46997H119.44352z
				 M119.44352,42.18441v-1.79004c0.47998-0.20001,1-0.31,1.53992-0.33997v2.13H119.44352z M116.50346,57.00435v-1.46997h1.94006
				v1.46997H116.50346z M118.44352,58.00435v1.87006h-1.94006v-1.87006H118.44352z M116.50346,54.53438v-1.46997h1.94006v1.46997
				H116.50346z M116.50346,52.06441v-1.47003h1.94006v1.47003H116.50346z M116.50346,49.59438v-1.46997h1.94006v1.46997H116.50346z
				 M116.50346,47.12441v-1.47003h1.94006v1.47003H116.50346z M116.52348,44.65438c0.00989-0.52002,0.12-1.01001,0.27991-1.46997
				h1.64014v1.46997H116.52348z M117.29337,42.18441c0.31006-0.47003,0.70007-0.87,1.15015-1.20001v1.20001H117.29337z
				 M112.0734,60.87441h18.43006v1.97998H112.0734V60.87441z M112.0734,63.85439h18.43006v2.06H112.0734V63.85439z
				 M112.0734,66.91439h18.43006v2.07001H112.0734V66.91439z M103.48344,73.46438c0-1.82001,1.4801-3.29999,3.29993-3.29999
				h12.57007c1.82007,0,3.30005,1.47998,3.30005,3.29999v2.19h-2.74585v-1.56433c0-0.27637-0.22363-0.5-0.5-0.5
				s-0.5,0.22363-0.5,0.5v1.56433h-2.16895v-1.56433c0-0.27637-0.22363-0.5-0.5-0.5s-0.5,0.22363-0.5,0.5v1.56433h-2.16992v-1.56433
				c0-0.27637-0.22363-0.5-0.5-0.5s-0.5,0.22363-0.5,0.5v1.56433h-2.16895v-1.56433c0-0.27637-0.22363-0.5-0.5-0.5
				s-0.5,0.22363-0.5,0.5v1.56433h-2.16895v-1.56433c0-0.27637-0.22363-0.5-0.5-0.5s-0.5,0.22363-0.5,0.5v1.56433h-2.74744V73.46438
				z M89.95353,81.5444h23.21997c1.81995,0,3.29993,1.48999,3.29993,3.31v2.17999h-1.72998v-1.56c0-0.27002-0.22998-0.5-0.5-0.5
				c-0.27991,0-0.5,0.22998-0.5,0.5v1.56h-2.17004v-1.56c0-0.27002-0.22998-0.5-0.5-0.5c-0.28003,0-0.5,0.22998-0.5,0.5v1.56
				h-2.16992v-1.56c0-0.27002-0.22998-0.5-0.5-0.5c-0.28003,0-0.5,0.22998-0.5,0.5v1.56h-2.17004v-1.56
				c0-0.27002-0.21997-0.5-0.5-0.5c-0.27991,0-0.5,0.22998-0.5,0.5v1.56h-2.17004v-1.56c0-0.27002-0.21997-0.5-0.5-0.5
				s-0.5,0.22998-0.5,0.5v1.56h-2.16992v-1.56c0-0.27002-0.21997-0.5-0.5-0.5c-0.27002,0-0.5,0.22998-0.5,0.5v1.56h-2.17004v-1.56
				c0-0.27002-0.21997-0.5-0.5-0.5c-0.2699,0-0.5,0.22998-0.5,0.5v1.56h-2.17004v-1.56c0-0.27002-0.21997-0.5-0.5-0.5
				c-0.27002,0-0.5,0.22998-0.5,0.5v1.56h-2.16992v-1.56c0-0.27002-0.21997-0.5-0.5-0.5c-0.27002,0-0.5,0.22998-0.5,0.5v1.56
				h-1.72998v-2.17999C86.65348,83.03439,88.13346,81.5444,89.95353,81.5444z M77.24345,39.79439h9.44006v2.04999h-9.44006V39.79439
				z M71.58341,42.84438H88.3234v2.31H71.58341V42.84438z M71.58341,46.15438H88.3234v2.22003H71.58341V46.15438z
				 M71.58341,49.37441H88.3234v2.20996H71.58341V49.37441z M71.58341,52.58437h8.98999v6.82001h-4.51001
				c-0.28003,0-0.5,0.22003-0.5,0.5v4.89002h-3.97998V52.58437z M71.58341,65.7944h4.47998c0.27002,0,0.5-0.22003,0.5-0.5v-4.89002
				h4.51001c0.27002,0,0.5-0.22998,0.5-0.5v-7.32001h6.75v28.27997c-1.56995,0.65002-2.66992,2.20001-2.66992,3.99005v28.41876
				h-3.3501V69.66439c0-0.28003-0.21997-0.5-0.5-0.5h-5.82996c-0.2699,0-0.5,0.21997-0.5,0.5v3.51001h-3.89001V65.7944z
				 M81.30338,81.40438h-4.82996V70.16439h4.82996V81.40438z M81.30338,82.40438v30.86877h-4.82996V82.40438H81.30338z
				 M66.68351,74.1744h8.78992v1.62h-8.78992V74.1744z M66.68351,76.7944h8.78992v1.53998h-8.78992V76.7944z M66.68351,79.33437
				h8.78992v2.07001h-8.78992V79.33437z M66.68351,82.40438h8.78992v2.14001h-8.78992V82.40438z M66.68351,85.5444h8.78992v2.13995
				h-8.78992V85.5444z M66.68351,88.68435h8.78992v2.14001h-8.78992V88.68435z M66.68351,91.82436h8.78992v2.13h-8.78992V91.82436z
				 M66.68351,94.95437h8.78992v2.14001h-8.78992V94.95437z M66.68351,98.09438h8.78992v2.14001h-8.78992V98.09438z
				 M66.68351,101.2344h8.78992v2.13995h-8.78992V101.2344z M66.68351,104.37435h8.78992v2.14001h-8.78992V104.37435z
				 M66.68351,107.51437h8.78992v2.14001h-8.78992V107.51437z M62.34342,78.13436h3.34009v3.27002h-3.34009V78.13436z
				 M46.79337,7.85439l1.69006,9.82001h-3.39001L46.79337,7.85439z M44.85343,20.9944c0.17004-0.06,0.29004-0.20001,0.32007-0.37
				c0.04004-0.16003-0.01001-0.34003-0.13013-0.46002l-1.51001-1.47998h6.52002l-1.5,1.47998
				c-0.11987,0.12-0.17993,0.29999-0.13989,0.46002c0.04004,0.16998,0.15991,0.31,0.31995,0.37l8.70007,3.09998H36.15348
				L44.85343,20.9944z M34.51347,28.82436l-0.66003-3.72998h25.87l-0.65002,3.72998H34.51347z M35.34342,33.5544l-0.6499-3.73004
				h24.19995l-0.66003,3.73004H35.34342z M54.51347,34.56441c-2.31995,2.19995-4.15002,6.20996-5.59998,10.25v-10.25H54.51347z
				 M50.30338,96.82436v3.22998h-7.02991v-3.22998H50.30338z M44.6735,44.56441c-1.44006-3.96002-3.25-7.84003-5.51001-10h5.51001
				V44.56441z M47.91349,95.82436H45.6735V34.56441h2.23999V95.82436z M22.44352,61.39437l13.02002,5.21003v43.21997
				c-0.47009,1.22003-0.96008,2.37-1.49011,3.45001h-1.18005V72.74435c0-0.27997-0.21997-0.5-0.5-0.5h-9.84985V61.39437z
				 M7.58341,113.27438V73.24435h24.20996v40.03003C23.26484,113.27438,12.34395,113.27438,7.58341,113.27438z M35.09342,113.27438
				c8.62727-17.91879,9.52219-58.18519,3.39001-77.95996c2.62,2.47998,4.65002,7.59998,6.19006,12.31v48.19995h-1.90002
				c-0.27002,0-0.5,0.22998-0.5,0.5v4.22998c0,0.28003,0.22998,0.5,0.5,0.5h1.90002v12.22003
				C43.96742,113.27438,34.75733,113.27438,35.09342,113.27438z M45.6735,113.27438v-12.22003h2.23999v12.22003H45.6735z
				 M48.91349,113.27438v-12.22003h1.88989c0.28003,0,0.5-0.21997,0.5-0.5v-4.22998c0-0.27002-0.21997-0.5-0.5-0.5h-1.88989
				V47.90438c1.53003-4.71002,3.54004-9.89001,6.1499-12.46997c-5.92993,19.31995-5.38989,59.05994,3.43005,77.83997H48.91349z
				 M62.34342,113.27438v-30.87h3.34009v30.87H62.34342z M66.68351,110.65438h8.78992v2.61877
				c-0.8429,0.00011-9.3281,0.00129-8.78992,0.00122V110.65438z M86.65348,113.27316V88.0444h29.81995v25.22998
				C82.55301,113.27438,88.80405,113.27326,86.65348,113.27316z M117.47343,113.27438V84.85439
				c0-2.24005-1.71997-4.09003-3.90002-4.29004c-0.00146-0.00012-0.00317-0.00012-0.00464-0.00024v-2.05267
				c0-0.27637-0.22363-0.5-0.5-0.5s-0.5,0.22363-0.5,0.5v2.03296h-2.16895v-2.03296c0-0.27637-0.22363-0.5-0.5-0.5
				s-0.5,0.22363-0.5,0.5v2.03296h-2.16895v-2.03296c0-0.27637-0.22363-0.5-0.5-0.5s-0.5,0.22363-0.5,0.5v2.03296h-2.74744v-3.89001
				h19.17004c-0.04109,9.12577-0.22791,35.45449,0,36.62H117.47343z M123.65348,113.27438v-29.94h6.84998v29.94H123.65348z
				 M134.17351,113.27438v-2.34003h10.8999v2.34003H134.17351z M146.07341,113.27438v-30.87h10.84009v30.87H146.07341z
				 M157.9135,75.62435h10.8999v37.6488h-7.93994v0.00122h-2.95996V75.62435z"/>
		</g>
		<g>
			<path fill="#685665" d="M128.66643,85.36886c-0.27637,0-0.5,0.22363-0.5,0.5v24.34473c0,0.27637,0.22363,0.5,0.5,0.5
				s0.5-0.22363,0.5-0.5V85.86886C129.16643,85.59249,128.94279,85.36886,128.66643,85.36886z"/>
		</g>
		<g>
			<path fill="#685665" d="M125.83439,85.36886c-0.27637,0-0.5,0.22363-0.5,0.5v24.34473c0,0.27637,0.22363,0.5,0.5,0.5
				s0.5-0.22363,0.5-0.5V85.86886C126.33439,85.59249,126.11076,85.36886,125.83439,85.36886z"/>
		</g>
		<g>
			<path fill="#685665" d="M116.23869,78.01144c-0.27637,0-0.5,0.22363-0.5,0.5v2.36182c0,0.27637,0.22363,0.5,0.5,0.5
				s0.5-0.22363,0.5-0.5v-2.36182C116.73869,78.23507,116.51505,78.01144,116.23869,78.01144z"/>
		</g>
		<g>
			<path fill="#685665" d="M119.40763,78.01144c-0.27637,0-0.5,0.22363-0.5,0.5v2.36182c0,0.27637,0.22363,0.5,0.5,0.5
				s0.5-0.22363,0.5-0.5v-2.36182C119.90763,78.23507,119.684,78.01144,119.40763,78.01144z"/>
		</g>
		<g>
			<path fill="#685665" d="M119.40763,82.8254c-0.27637,0-0.5,0.22363-0.5,0.5v2.36182c0,0.27637,0.22363,0.5,0.5,0.5
				s0.5-0.22363,0.5-0.5V83.3254C119.90763,83.04903,119.684,82.8254,119.40763,82.8254z"/>
		</g>
		<g>
			<path fill="#685665" d="M119.40763,87.63985c-0.27637,0-0.5,0.22363-0.5,0.5v2.36182c0,0.27637,0.22363,0.5,0.5,0.5
				s0.5-0.22363,0.5-0.5v-2.36182C119.90763,87.86349,119.684,87.63985,119.40763,87.63985z"/>
		</g>
		<g>
			<path fill="#685665" d="M119.40763,92.45382c-0.27637,0-0.5,0.22363-0.5,0.5v2.36182c0,0.27637,0.22363,0.5,0.5,0.5
				s0.5-0.22363,0.5-0.5v-2.36182C119.90763,92.67745,119.684,92.45382,119.40763,92.45382z"/>
		</g>
		<g>
			<path fill="#685665" d="M119.40763,97.73702c-0.27637,0-0.5,0.22363-0.5,0.5v2.36133c0,0.27637,0.22363,0.5,0.5,0.5
				s0.5-0.22363,0.5-0.5v-2.36133C119.90763,97.96066,119.684,97.73702,119.40763,97.73702z"/>
		</g>
		<g>
			<path fill="#685665" d="M78.89298,74.17355c0.27637,0,0.5-0.22363,0.5-0.5v-2.01709c0-0.27637-0.22363-0.5-0.5-0.5
				s-0.5,0.22363-0.5,0.5v2.01709C78.39298,73.94991,78.61662,74.17355,78.89298,74.17355z"/>
		</g>
		<g>
			<path fill="#685665" d="M78.89298,78.29855c0.27637,0,0.5-0.22363,0.5-0.5v-2.01709c0-0.27637-0.22363-0.5-0.5-0.5
				s-0.5,0.22363-0.5,0.5v2.01709C78.39298,78.07491,78.61662,78.29855,78.89298,78.29855z"/>
		</g>
		<g>
			<path fill="#685665" d="M88.88712,89.40011c-0.27637,0-0.5,0.22363-0.5,0.5v2.36182c0,0.27637,0.22363,0.5,0.5,0.5
				s0.5-0.22363,0.5-0.5v-2.36182C89.38712,89.62374,89.16349,89.40011,88.88712,89.40011z"/>
		</g>
		<g>
			<path fill="#685665" d="M88.88712,94.21407c-0.27637,0-0.5,0.22363-0.5,0.5v2.36182c0,0.27637,0.22363,0.5,0.5,0.5
				s0.5-0.22363,0.5-0.5v-2.36182C89.38712,94.43771,89.16349,94.21407,88.88712,94.21407z"/>
		</g>
		<g>
			<path fill="#685665" d="M88.88712,99.02853c-0.27637,0-0.5,0.22363-0.5,0.5v2.36133c0,0.27637,0.22363,0.5,0.5,0.5
				s0.5-0.22363,0.5-0.5v-2.36133C89.38712,99.25216,89.16349,99.02853,88.88712,99.02853z"/>
		</g>
		<g>
			<path fill="#685665" d="M88.88712,103.84249c-0.27637,0-0.5,0.22363-0.5,0.5v2.36182c0,0.27637,0.22363,0.5,0.5,0.5
				s0.5-0.22363,0.5-0.5v-2.36182C89.38712,104.06612,89.16349,103.84249,88.88712,103.84249z"/>
		</g>
		<g>
			<path fill="#685665" d="M88.88712,109.12521c-0.27637,0-0.5,0.22363-0.5,0.5v2.36182c0,0.27637,0.22363,0.5,0.5,0.5
				s0.5-0.22363,0.5-0.5v-2.36182C89.38712,109.34884,89.16349,109.12521,88.88712,109.12521z"/>
		</g>
		<g>
			<path fill="#685665" d="M92.05607,89.40011c-0.27637,0-0.5,0.22363-0.5,0.5v2.36182c0,0.27637,0.22363,0.5,0.5,0.5
				s0.5-0.22363,0.5-0.5v-2.36182C92.55607,89.62374,92.33244,89.40011,92.05607,89.40011z"/>
		</g>
		<g>
			<path fill="#685665" d="M92.05607,94.21407c-0.27637,0-0.5,0.22363-0.5,0.5v2.36182c0,0.27637,0.22363,0.5,0.5,0.5
				s0.5-0.22363,0.5-0.5v-2.36182C92.55607,94.43771,92.33244,94.21407,92.05607,94.21407z"/>
		</g>
		<g>
			<path fill="#685665" d="M92.05607,99.02853c-0.27637,0-0.5,0.22363-0.5,0.5v2.36133c0,0.27637,0.22363,0.5,0.5,0.5
				s0.5-0.22363,0.5-0.5v-2.36133C92.55607,99.25216,92.33244,99.02853,92.05607,99.02853z"/>
		</g>
		<g>
			<path fill="#685665" d="M92.05607,103.84249c-0.27637,0-0.5,0.22363-0.5,0.5v2.36182c0,0.27637,0.22363,0.5,0.5,0.5
				s0.5-0.22363,0.5-0.5v-2.36182C92.55607,104.06612,92.33244,103.84249,92.05607,103.84249z"/>
		</g>
		<g>
			<path fill="#685665" d="M92.05607,109.12521c-0.27637,0-0.5,0.22363-0.5,0.5v2.36182c0,0.27637,0.22363,0.5,0.5,0.5
				s0.5-0.22363,0.5-0.5v-2.36182C92.55607,109.34884,92.33244,109.12521,92.05607,109.12521z"/>
		</g>
		<g>
			<path fill="#685665" d="M95.22501,89.40011c-0.27637,0-0.5,0.22363-0.5,0.5v2.36182c0,0.27637,0.22363,0.5,0.5,0.5
				s0.5-0.22363,0.5-0.5v-2.36182C95.72501,89.62374,95.50138,89.40011,95.22501,89.40011z"/>
		</g>
		<g>
			<path fill="#685665" d="M95.22501,94.21407c-0.27637,0-0.5,0.22363-0.5,0.5v2.36182c0,0.27637,0.22363,0.5,0.5,0.5
				s0.5-0.22363,0.5-0.5v-2.36182C95.72501,94.43771,95.50138,94.21407,95.22501,94.21407z"/>
		</g>
		<g>
			<path fill="#685665" d="M95.22501,99.02853c-0.27637,0-0.5,0.22363-0.5,0.5v2.36133c0,0.27637,0.22363,0.5,0.5,0.5
				s0.5-0.22363,0.5-0.5v-2.36133C95.72501,99.25216,95.50138,99.02853,95.22501,99.02853z"/>
		</g>
		<g>
			<path fill="#685665" d="M95.22501,103.84249c-0.27637,0-0.5,0.22363-0.5,0.5v2.36182c0,0.27637,0.22363,0.5,0.5,0.5
				s0.5-0.22363,0.5-0.5v-2.36182C95.72501,104.06612,95.50138,103.84249,95.22501,103.84249z"/>
		</g>
		<g>
			<path fill="#685665" d="M95.22501,109.12521c-0.27637,0-0.5,0.22363-0.5,0.5v2.36182c0,0.27637,0.22363,0.5,0.5,0.5
				s0.5-0.22363,0.5-0.5v-2.36182C95.72501,109.34884,95.50138,109.12521,95.22501,109.12521z"/>
		</g>
		<g>
			<path fill="#685665" d="M98.39494,89.40011c-0.27637,0-0.5,0.22363-0.5,0.5v2.36182c0,0.27637,0.22363,0.5,0.5,0.5
				s0.5-0.22363,0.5-0.5v-2.36182C98.89494,89.62374,98.6713,89.40011,98.39494,89.40011z"/>
		</g>
		<g>
			<path fill="#685665" d="M98.39494,94.21407c-0.27637,0-0.5,0.22363-0.5,0.5v2.36182c0,0.27637,0.22363,0.5,0.5,0.5
				s0.5-0.22363,0.5-0.5v-2.36182C98.89494,94.43771,98.6713,94.21407,98.39494,94.21407z"/>
		</g>
		<g>
			<path fill="#685665" d="M98.39494,99.02853c-0.27637,0-0.5,0.22363-0.5,0.5v2.36133c0,0.27637,0.22363,0.5,0.5,0.5
				s0.5-0.22363,0.5-0.5v-2.36133C98.89494,99.25216,98.6713,99.02853,98.39494,99.02853z"/>
		</g>
		<g>
			<path fill="#685665" d="M98.39494,103.84249c-0.27637,0-0.5,0.22363-0.5,0.5v2.36182c0,0.27637,0.22363,0.5,0.5,0.5
				s0.5-0.22363,0.5-0.5v-2.36182C98.89494,104.06612,98.6713,103.84249,98.39494,103.84249z"/>
		</g>
		<g>
			<path fill="#685665" d="M98.39494,109.12521c-0.27637,0-0.5,0.22363-0.5,0.5v2.36182c0,0.27637,0.22363,0.5,0.5,0.5
				s0.5-0.22363,0.5-0.5v-2.36182C98.89494,109.34884,98.6713,109.12521,98.39494,109.12521z"/>
		</g>
		<g>
			<path fill="#685665" d="M101.56388,89.40011c-0.27637,0-0.5,0.22363-0.5,0.5v2.36182c0,0.27637,0.22363,0.5,0.5,0.5
				s0.5-0.22363,0.5-0.5v-2.36182C102.06388,89.62374,101.84025,89.40011,101.56388,89.40011z"/>
		</g>
		<g>
			<path fill="#685665" d="M101.56388,94.21407c-0.27637,0-0.5,0.22363-0.5,0.5v2.36182c0,0.27637,0.22363,0.5,0.5,0.5
				s0.5-0.22363,0.5-0.5v-2.36182C102.06388,94.43771,101.84025,94.21407,101.56388,94.21407z"/>
		</g>
		<g>
			<path fill="#685665" d="M101.56388,99.02853c-0.27637,0-0.5,0.22363-0.5,0.5v2.36133c0,0.27637,0.22363,0.5,0.5,0.5
				s0.5-0.22363,0.5-0.5v-2.36133C102.06388,99.25216,101.84025,99.02853,101.56388,99.02853z"/>
		</g>
		<g>
			<path fill="#685665" d="M101.56388,103.84249c-0.27637,0-0.5,0.22363-0.5,0.5v2.36182c0,0.27637,0.22363,0.5,0.5,0.5
				s0.5-0.22363,0.5-0.5v-2.36182C102.06388,104.06612,101.84025,103.84249,101.56388,103.84249z"/>
		</g>
		<g>
			<path fill="#685665" d="M101.56388,109.12521c-0.27637,0-0.5,0.22363-0.5,0.5v2.36182c0,0.27637,0.22363,0.5,0.5,0.5
				s0.5-0.22363,0.5-0.5v-2.36182C102.06388,109.34884,101.84025,109.12521,101.56388,109.12521z"/>
		</g>
		<g>
			<path fill="#685665" d="M104.73283,89.40011c-0.27637,0-0.5,0.22363-0.5,0.5v2.36182c0,0.27637,0.22363,0.5,0.5,0.5
				s0.5-0.22363,0.5-0.5v-2.36182C105.23283,89.62374,105.00919,89.40011,104.73283,89.40011z"/>
		</g>
		<g>
			<path fill="#685665" d="M104.73283,94.21407c-0.27637,0-0.5,0.22363-0.5,0.5v2.36182c0,0.27637,0.22363,0.5,0.5,0.5
				s0.5-0.22363,0.5-0.5v-2.36182C105.23283,94.43771,105.00919,94.21407,104.73283,94.21407z"/>
		</g>
		<g>
			<path fill="#685665" d="M104.73283,99.02853c-0.27637,0-0.5,0.22363-0.5,0.5v2.36133c0,0.27637,0.22363,0.5,0.5,0.5
				s0.5-0.22363,0.5-0.5v-2.36133C105.23283,99.25216,105.00919,99.02853,104.73283,99.02853z"/>
		</g>
		<g>
			<path fill="#685665" d="M104.73283,103.84249c-0.27637,0-0.5,0.22363-0.5,0.5v2.36182c0,0.27637,0.22363,0.5,0.5,0.5
				s0.5-0.22363,0.5-0.5v-2.36182C105.23283,104.06612,105.00919,103.84249,104.73283,103.84249z"/>
		</g>
		<g>
			<path fill="#685665" d="M104.73283,109.12521c-0.27637,0-0.5,0.22363-0.5,0.5v2.36182c0,0.27637,0.22363,0.5,0.5,0.5
				s0.5-0.22363,0.5-0.5v-2.36182C105.23283,109.34884,105.00919,109.12521,104.73283,109.12521z"/>
		</g>
		<g>
			<path fill="#685665" d="M107.90177,89.40011c-0.27637,0-0.5,0.22363-0.5,0.5v2.36182c0,0.27637,0.22363,0.5,0.5,0.5
				s0.5-0.22363,0.5-0.5v-2.36182C108.40177,89.62374,108.17814,89.40011,107.90177,89.40011z"/>
		</g>
		<g>
			<path fill="#685665" d="M107.90177,94.21407c-0.27637,0-0.5,0.22363-0.5,0.5v2.36182c0,0.27637,0.22363,0.5,0.5,0.5
				s0.5-0.22363,0.5-0.5v-2.36182C108.40177,94.43771,108.17814,94.21407,107.90177,94.21407z"/>
		</g>
		<g>
			<path fill="#685665" d="M107.90177,99.02853c-0.27637,0-0.5,0.22363-0.5,0.5v2.36133c0,0.27637,0.22363,0.5,0.5,0.5
				s0.5-0.22363,0.5-0.5v-2.36133C108.40177,99.25216,108.17814,99.02853,107.90177,99.02853z"/>
		</g>
		<g>
			<path fill="#685665" d="M107.90177,103.84249c-0.27637,0-0.5,0.22363-0.5,0.5v2.36182c0,0.27637,0.22363,0.5,0.5,0.5
				s0.5-0.22363,0.5-0.5v-2.36182C108.40177,104.06612,108.17814,103.84249,107.90177,103.84249z"/>
		</g>
		<g>
			<path fill="#685665" d="M107.90177,109.12521c-0.27637,0-0.5,0.22363-0.5,0.5v2.36182c0,0.27637,0.22363,0.5,0.5,0.5
				s0.5-0.22363,0.5-0.5v-2.36182C108.40177,109.34884,108.17814,109.12521,107.90177,109.12521z"/>
		</g>
		<g>
			<path fill="#685665" d="M111.07072,89.40011c-0.27637,0-0.5,0.22363-0.5,0.5v2.36182c0,0.27637,0.22363,0.5,0.5,0.5
				s0.5-0.22363,0.5-0.5v-2.36182C111.57072,89.62374,111.34708,89.40011,111.07072,89.40011z"/>
		</g>
		<g>
			<path fill="#685665" d="M111.07072,94.21407c-0.27637,0-0.5,0.22363-0.5,0.5v2.36182c0,0.27637,0.22363,0.5,0.5,0.5
				s0.5-0.22363,0.5-0.5v-2.36182C111.57072,94.43771,111.34708,94.21407,111.07072,94.21407z"/>
		</g>
		<g>
			<path fill="#685665" d="M111.07072,99.02853c-0.27637,0-0.5,0.22363-0.5,0.5v2.36133c0,0.27637,0.22363,0.5,0.5,0.5
				s0.5-0.22363,0.5-0.5v-2.36133C111.57072,99.25216,111.34708,99.02853,111.07072,99.02853z"/>
		</g>
		<g>
			<path fill="#685665" d="M111.07072,103.84249c-0.27637,0-0.5,0.22363-0.5,0.5v2.36182c0,0.27637,0.22363,0.5,0.5,0.5
				s0.5-0.22363,0.5-0.5v-2.36182C111.57072,104.06612,111.34708,103.84249,111.07072,103.84249z"/>
		</g>
		<g>
			<path fill="#685665" d="M111.07072,109.12521c-0.27637,0-0.5,0.22363-0.5,0.5v2.36182c0,0.27637,0.22363,0.5,0.5,0.5
				s0.5-0.22363,0.5-0.5v-2.36182C111.57072,109.34884,111.34708,109.12521,111.07072,109.12521z"/>
		</g>
		<g>
			<path fill="#685665" d="M114.23966,89.40011c-0.27637,0-0.5,0.22363-0.5,0.5v2.36182c0,0.27637,0.22363,0.5,0.5,0.5
				s0.5-0.22363,0.5-0.5v-2.36182C114.73966,89.62374,114.51603,89.40011,114.23966,89.40011z"/>
		</g>
		<g>
			<path fill="#685665" d="M114.23966,94.21407c-0.27637,0-0.5,0.22363-0.5,0.5v2.36182c0,0.27637,0.22363,0.5,0.5,0.5
				s0.5-0.22363,0.5-0.5v-2.36182C114.73966,94.43771,114.51603,94.21407,114.23966,94.21407z"/>
		</g>
		<g>
			<path fill="#685665" d="M114.23966,99.02853c-0.27637,0-0.5,0.22363-0.5,0.5v2.36133c0,0.27637,0.22363,0.5,0.5,0.5
				s0.5-0.22363,0.5-0.5v-2.36133C114.73966,99.25216,114.51603,99.02853,114.23966,99.02853z"/>
		</g>
		<g>
			<path fill="#685665" d="M114.23966,103.84249c-0.27637,0-0.5,0.22363-0.5,0.5v2.36182c0,0.27637,0.22363,0.5,0.5,0.5
				s0.5-0.22363,0.5-0.5v-2.36182C114.73966,104.06612,114.51603,103.84249,114.23966,103.84249z"/>
		</g>
		<g>
			<path fill="#685665" d="M114.23966,109.12521c-0.27637,0-0.5,0.22363-0.5,0.5v2.36182c0,0.27637,0.22363,0.5,0.5,0.5
				s0.5-0.22363,0.5-0.5v-2.36182C114.73966,109.34884,114.51603,109.12521,114.23966,109.12521z"/>
		</g>
		<g>
			<path fill="#685665" d="M159.71526,77.09444c-0.27637,0-0.5,0.22363-0.5,0.5v13.82715c0,0.27637,0.22363,0.5,0.5,0.5
				s0.5-0.22363,0.5-0.5V77.59444C160.21526,77.31808,159.99162,77.09444,159.71526,77.09444z"/>
		</g>
		<g>
			<path fill="#685665" d="M162.14983,91.92159c0.27637,0,0.5-0.22363,0.5-0.5V77.59444c0-0.27637-0.22363-0.5-0.5-0.5
				s-0.5,0.22363-0.5,0.5v13.82715C161.64983,91.69796,161.87346,91.92159,162.14983,91.92159z"/>
		</g>
		<g>
			<path fill="#685665" d="M164.5844,91.92159c0.27637,0,0.5-0.22363,0.5-0.5V77.59444c0-0.27637-0.22363-0.5-0.5-0.5
				s-0.5,0.22363-0.5,0.5v13.82715C164.0844,91.69796,164.30803,91.92159,164.5844,91.92159z"/>
		</g>
		<g>
			<path fill="#685665" d="M167.01799,91.92159c0.27637,0,0.5-0.22363,0.5-0.5V77.59444c0-0.27637-0.22363-0.5-0.5-0.5
				s-0.5,0.22363-0.5,0.5v13.82715C166.51799,91.69796,166.74162,91.92159,167.01799,91.92159z"/>
		</g>
		<g>
			<path fill="#685665" d="M159.71526,95.66183c-0.27637,0-0.5,0.22363-0.5,0.5v13.82764c0,0.27637,0.22363,0.5,0.5,0.5
				s0.5-0.22363,0.5-0.5V96.16183C160.21526,95.88546,159.99162,95.66183,159.71526,95.66183z"/>
		</g>
		<g>
			<path fill="#685665" d="M162.14983,110.48946c0.27637,0,0.5-0.22363,0.5-0.5V96.16183c0-0.27637-0.22363-0.5-0.5-0.5
				s-0.5,0.22363-0.5,0.5v13.82764C161.64983,110.26583,161.87346,110.48946,162.14983,110.48946z"/>
		</g>
		<g>
			<path fill="#685665" d="M164.5844,110.48946c0.27637,0,0.5-0.22363,0.5-0.5V96.16183c0-0.27637-0.22363-0.5-0.5-0.5
				s-0.5,0.22363-0.5,0.5v13.82764C164.0844,110.26583,164.30803,110.48946,164.5844,110.48946z"/>
		</g>
		<g>
			<path fill="#685665" d="M167.01799,110.48946c0.27637,0,0.5-0.22363,0.5-0.5V96.16183c0-0.27637-0.22363-0.5-0.5-0.5
				s-0.5,0.22363-0.5,0.5v13.82764C166.51799,110.26583,166.74162,110.48946,167.01799,110.48946z"/>
		</g>
		<g>
			<path fill="#685665" d="M147.84319,84.28683c-0.27637,0-0.5,0.22363-0.5,0.5v2.37158c0,0.27637,0.22363,0.5,0.5,0.5
				s0.5-0.22363,0.5-0.5v-2.37158C148.34319,84.51046,148.11955,84.28683,147.84319,84.28683z"/>
		</g>
		<g>
			<path fill="#685665" d="M150.27776,84.28683c-0.27637,0-0.5,0.22363-0.5,0.5v2.37158c0,0.27637,0.22363,0.5,0.5,0.5
				s0.5-0.22363,0.5-0.5v-2.37158C150.77776,84.51046,150.55412,84.28683,150.27776,84.28683z"/>
		</g>
		<g>
			<path fill="#685665" d="M152.71233,84.28683c-0.27637,0-0.5,0.22363-0.5,0.5v2.37158c0,0.27637,0.22363,0.5,0.5,0.5
				s0.5-0.22363,0.5-0.5v-2.37158C153.21233,84.51046,152.98869,84.28683,152.71233,84.28683z"/>
		</g>
		<g>
			<path fill="#685665" d="M155.1469,84.28683c-0.27637,0-0.5,0.22363-0.5,0.5v2.37158c0,0.27637,0.22363,0.5,0.5,0.5
				s0.5-0.22363,0.5-0.5v-2.37158C155.6469,84.51046,155.42326,84.28683,155.1469,84.28683z"/>
		</g>
		<g>
			<path fill="#685665" d="M147.84319,89.21896c-0.27637,0-0.5,0.22363-0.5,0.5v2.37158c0,0.27637,0.22363,0.5,0.5,0.5
				s0.5-0.22363,0.5-0.5v-2.37158C148.34319,89.44259,148.11955,89.21896,147.84319,89.21896z"/>
		</g>
		<g>
			<path fill="#685665" d="M150.27776,89.21896c-0.27637,0-0.5,0.22363-0.5,0.5v2.37158c0,0.27637,0.22363,0.5,0.5,0.5
				s0.5-0.22363,0.5-0.5v-2.37158C150.77776,89.44259,150.55412,89.21896,150.27776,89.21896z"/>
		</g>
		<g>
			<path fill="#685665" d="M152.71233,89.21896c-0.27637,0-0.5,0.22363-0.5,0.5v2.37158c0,0.27637,0.22363,0.5,0.5,0.5
				s0.5-0.22363,0.5-0.5v-2.37158C153.21233,89.44259,152.98869,89.21896,152.71233,89.21896z"/>
		</g>
		<g>
			<path fill="#685665" d="M155.1469,89.21896c-0.27637,0-0.5,0.22363-0.5,0.5v2.37158c0,0.27637,0.22363,0.5,0.5,0.5
				s0.5-0.22363,0.5-0.5v-2.37158C155.6469,89.44259,155.42326,89.21896,155.1469,89.21896z"/>
		</g>
		<g>
			<path fill="#685665" d="M147.84319,94.15108c-0.27637,0-0.5,0.22363-0.5,0.5v2.37158c0,0.27637,0.22363,0.5,0.5,0.5
				s0.5-0.22363,0.5-0.5v-2.37158C148.34319,94.37472,148.11955,94.15108,147.84319,94.15108z"/>
		</g>
		<g>
			<path fill="#685665" d="M150.27776,94.15108c-0.27637,0-0.5,0.22363-0.5,0.5v2.37158c0,0.27637,0.22363,0.5,0.5,0.5
				s0.5-0.22363,0.5-0.5v-2.37158C150.77776,94.37472,150.55412,94.15108,150.27776,94.15108z"/>
		</g>
		<g>
			<path fill="#685665" d="M152.71233,94.15108c-0.27637,0-0.5,0.22363-0.5,0.5v2.37158c0,0.27637,0.22363,0.5,0.5,0.5
				s0.5-0.22363,0.5-0.5v-2.37158C153.21233,94.37472,152.98869,94.15108,152.71233,94.15108z"/>
		</g>
		<g>
			<path fill="#685665" d="M155.1469,94.15108c-0.27637,0-0.5,0.22363-0.5,0.5v2.37158c0,0.27637,0.22363,0.5,0.5,0.5
				s0.5-0.22363,0.5-0.5v-2.37158C155.6469,94.37472,155.42326,94.15108,155.1469,94.15108z"/>
		</g>
		<g>
			<path fill="#685665" d="M147.84319,99.08321c-0.27637,0-0.5,0.22363-0.5,0.5v2.37158c0,0.27637,0.22363,0.5,0.5,0.5
				s0.5-0.22363,0.5-0.5v-2.37158C148.34319,99.30685,148.11955,99.08321,147.84319,99.08321z"/>
		</g>
		<g>
			<path fill="#685665" d="M150.27776,99.08321c-0.27637,0-0.5,0.22363-0.5,0.5v2.37158c0,0.27637,0.22363,0.5,0.5,0.5
				s0.5-0.22363,0.5-0.5v-2.37158C150.77776,99.30685,150.55412,99.08321,150.27776,99.08321z"/>
		</g>
		<g>
			<path fill="#685665" d="M152.71233,99.08321c-0.27637,0-0.5,0.22363-0.5,0.5v2.37158c0,0.27637,0.22363,0.5,0.5,0.5
				s0.5-0.22363,0.5-0.5v-2.37158C153.21233,99.30685,152.98869,99.08321,152.71233,99.08321z"/>
		</g>
		<g>
			<path fill="#685665" d="M155.1469,99.08321c-0.27637,0-0.5,0.22363-0.5,0.5v2.37158c0,0.27637,0.22363,0.5,0.5,0.5
				s0.5-0.22363,0.5-0.5v-2.37158C155.6469,99.30685,155.42326,99.08321,155.1469,99.08321z"/>
		</g>
		<g>
			<path fill="#685665" d="M147.84319,104.01534c-0.27637,0-0.5,0.22363-0.5,0.5v2.37158c0,0.27637,0.22363,0.5,0.5,0.5
				s0.5-0.22363,0.5-0.5v-2.37158C148.34319,104.23898,148.11955,104.01534,147.84319,104.01534z"/>
		</g>
		<g>
			<path fill="#685665" d="M150.27776,104.01534c-0.27637,0-0.5,0.22363-0.5,0.5v2.37158c0,0.27637,0.22363,0.5,0.5,0.5
				s0.5-0.22363,0.5-0.5v-2.37158C150.77776,104.23898,150.55412,104.01534,150.27776,104.01534z"/>
		</g>
		<g>
			<path fill="#685665" d="M152.71233,104.01534c-0.27637,0-0.5,0.22363-0.5,0.5v2.37158c0,0.27637,0.22363,0.5,0.5,0.5
				s0.5-0.22363,0.5-0.5v-2.37158C153.21233,104.23898,152.98869,104.01534,152.71233,104.01534z"/>
		</g>
		<g>
			<path fill="#685665" d="M155.1469,104.01534c-0.27637,0-0.5,0.22363-0.5,0.5v2.37158c0,0.27637,0.22363,0.5,0.5,0.5
				s0.5-0.22363,0.5-0.5v-2.37158C155.6469,104.23898,155.42326,104.01534,155.1469,104.01534z"/>
		</g>
		<g>
			<path fill="#685665" d="M147.84319,108.94698c-0.27637,0-0.5,0.22363-0.5,0.5v2.37207c0,0.27637,0.22363,0.5,0.5,0.5
				s0.5-0.22363,0.5-0.5v-2.37207C148.34319,109.17062,148.11955,108.94698,147.84319,108.94698z"/>
		</g>
		<g>
			<path fill="#685665" d="M150.27776,108.94698c-0.27637,0-0.5,0.22363-0.5,0.5v2.37207c0,0.27637,0.22363,0.5,0.5,0.5
				s0.5-0.22363,0.5-0.5v-2.37207C150.77776,109.17062,150.55412,108.94698,150.27776,108.94698z"/>
		</g>
		<g>
			<path fill="#685665" d="M152.71233,108.94698c-0.27637,0-0.5,0.22363-0.5,0.5v2.37207c0,0.27637,0.22363,0.5,0.5,0.5
				s0.5-0.22363,0.5-0.5v-2.37207C153.21233,109.17062,152.98869,108.94698,152.71233,108.94698z"/>
		</g>
		<g>
			<path fill="#685665" d="M155.1469,108.94698c-0.27637,0-0.5,0.22363-0.5,0.5v2.37207c0,0.27637,0.22363,0.5,0.5,0.5
				s0.5-0.22363,0.5-0.5v-2.37207C155.6469,109.17062,155.42326,108.94698,155.1469,108.94698z"/>
		</g>
		<g>
			<path fill="#685665" d="M171.61174,87.65841c0.27637,0,0.5-0.22363,0.5-0.5v-2.37158c0-0.27637-0.22363-0.5-0.5-0.5
				s-0.5,0.22363-0.5,0.5v2.37158C171.11174,87.43478,171.33537,87.65841,171.61174,87.65841z"/>
		</g>
		<g>
			<path fill="#685665" d="M174.04631,87.65841c0.27637,0,0.5-0.22363,0.5-0.5v-2.37158c0-0.27637-0.22363-0.5-0.5-0.5
				s-0.5,0.22363-0.5,0.5v2.37158C173.54631,87.43478,173.76994,87.65841,174.04631,87.65841z"/>
		</g>
		<g>
			<path fill="#685665" d="M176.48088,87.65841c0.27637,0,0.5-0.22363,0.5-0.5v-2.37158c0-0.27637-0.22363-0.5-0.5-0.5
				s-0.5,0.22363-0.5,0.5v2.37158C175.98088,87.43478,176.20451,87.65841,176.48088,87.65841z"/>
		</g>
		<g>
			<path fill="#685665" d="M178.91545,87.65841c0.27637,0,0.5-0.22363,0.5-0.5v-2.37158c0-0.27637-0.22363-0.5-0.5-0.5
				s-0.5,0.22363-0.5,0.5v2.37158C178.41545,87.43478,178.63908,87.65841,178.91545,87.65841z"/>
		</g>
		<g>
			<path fill="#685665" d="M171.61174,92.59054c0.27637,0,0.5-0.22363,0.5-0.5v-2.37158c0-0.27637-0.22363-0.5-0.5-0.5
				s-0.5,0.22363-0.5,0.5v2.37158C171.11174,92.36691,171.33537,92.59054,171.61174,92.59054z"/>
		</g>
		<g>
			<path fill="#685665" d="M174.04631,92.59054c0.27637,0,0.5-0.22363,0.5-0.5v-2.37158c0-0.27637-0.22363-0.5-0.5-0.5
				s-0.5,0.22363-0.5,0.5v2.37158C173.54631,92.36691,173.76994,92.59054,174.04631,92.59054z"/>
		</g>
		<g>
			<path fill="#685665" d="M176.48088,92.59054c0.27637,0,0.5-0.22363,0.5-0.5v-2.37158c0-0.27637-0.22363-0.5-0.5-0.5
				s-0.5,0.22363-0.5,0.5v2.37158C175.98088,92.36691,176.20451,92.59054,176.48088,92.59054z"/>
		</g>
		<g>
			<path fill="#685665" d="M178.91545,92.59054c0.27637,0,0.5-0.22363,0.5-0.5v-2.37158c0-0.27637-0.22363-0.5-0.5-0.5
				s-0.5,0.22363-0.5,0.5v2.37158C178.41545,92.36691,178.63908,92.59054,178.91545,92.59054z"/>
		</g>
		<g>
			<path fill="#685665" d="M171.61174,97.52267c0.27637,0,0.5-0.22363,0.5-0.5v-2.37158c0-0.27637-0.22363-0.5-0.5-0.5
				s-0.5,0.22363-0.5,0.5v2.37158C171.11174,97.29903,171.33537,97.52267,171.61174,97.52267z"/>
		</g>
		<g>
			<path fill="#685665" d="M174.04631,97.52267c0.27637,0,0.5-0.22363,0.5-0.5v-2.37158c0-0.27637-0.22363-0.5-0.5-0.5
				s-0.5,0.22363-0.5,0.5v2.37158C173.54631,97.29903,173.76994,97.52267,174.04631,97.52267z"/>
		</g>
		<g>
			<path fill="#685665" d="M176.48088,97.52267c0.27637,0,0.5-0.22363,0.5-0.5v-2.37158c0-0.27637-0.22363-0.5-0.5-0.5
				s-0.5,0.22363-0.5,0.5v2.37158C175.98088,97.29903,176.20451,97.52267,176.48088,97.52267z"/>
		</g>
		<g>
			<path fill="#685665" d="M178.91545,97.52267c0.27637,0,0.5-0.22363,0.5-0.5v-2.37158c0-0.27637-0.22363-0.5-0.5-0.5
				s-0.5,0.22363-0.5,0.5v2.37158C178.41545,97.29903,178.63908,97.52267,178.91545,97.52267z"/>
		</g>
		<g>
			<path fill="#685665" d="M171.61174,102.4548c0.27637,0,0.5-0.22363,0.5-0.5v-2.37158c0-0.27637-0.22363-0.5-0.5-0.5
				s-0.5,0.22363-0.5,0.5v2.37158C171.11174,102.23116,171.33537,102.4548,171.61174,102.4548z"/>
		</g>
		<g>
			<path fill="#685665" d="M174.04631,102.4548c0.27637,0,0.5-0.22363,0.5-0.5v-2.37158c0-0.27637-0.22363-0.5-0.5-0.5
				s-0.5,0.22363-0.5,0.5v2.37158C173.54631,102.23116,173.76994,102.4548,174.04631,102.4548z"/>
		</g>
		<g>
			<path fill="#685665" d="M176.48088,102.4548c0.27637,0,0.5-0.22363,0.5-0.5v-2.37158c0-0.27637-0.22363-0.5-0.5-0.5
				s-0.5,0.22363-0.5,0.5v2.37158C175.98088,102.23116,176.20451,102.4548,176.48088,102.4548z"/>
		</g>
		<g>
			<path fill="#685665" d="M178.91545,102.4548c0.83398,0,0.37122-1.21808,0.5-2.87158c0-0.27637-0.22363-0.5-0.5-0.5
				s-0.5,0.22363-0.5,0.5v2.37158C178.41545,102.23116,178.63908,102.4548,178.91545,102.4548z"/>
		</g>
		<g>
			<path fill="#685665" d="M171.61174,107.38692c0.27637,0,0.5-0.22363,0.5-0.5v-2.37158c0-0.27637-0.22363-0.5-0.5-0.5
				s-0.5,0.22363-0.5,0.5v2.37158C171.11174,107.16329,171.33537,107.38692,171.61174,107.38692z"/>
		</g>
		<g>
			<path fill="#685665" d="M174.04631,107.38692c0.27637,0,0.5-0.22363,0.5-0.5v-2.37158c0-0.27637-0.22363-0.5-0.5-0.5
				s-0.5,0.22363-0.5,0.5v2.37158C173.54631,107.16329,173.76994,107.38692,174.04631,107.38692z"/>
		</g>
		<g>
			<path fill="#685665" d="M176.48088,107.38692c0.27637,0,0.5-0.22363,0.5-0.5v-2.37158c0-0.27637-0.22363-0.5-0.5-0.5
				s-0.5,0.22363-0.5,0.5v2.37158C175.98088,107.16329,176.20451,107.38692,176.48088,107.38692z"/>
		</g>
		<g>
			<path fill="#685665" d="M178.91545,107.38692c0.27637,0,0.5-0.22363,0.5-0.5c-0.1272-1.63428,0.33691-2.87158-0.5-2.87158
				c-0.27637,0-0.5,0.22363-0.5,0.5v2.37158C178.41545,107.16329,178.63908,107.38692,178.91545,107.38692z"/>
		</g>
		<g>
			<path fill="#685665" d="M171.61174,112.31905c0.27637,0,0.5-0.22363,0.5-0.5v-2.37207c0-0.27637-0.22363-0.5-0.5-0.5
				s-0.5,0.22363-0.5,0.5v2.37207C171.11174,112.09542,171.33537,112.31905,171.61174,112.31905z"/>
		</g>
		<g>
			<path fill="#685665" d="M174.04631,112.31905c0.27637,0,0.5-0.22363,0.5-0.5v-2.37207c0-0.27637-0.22363-0.5-0.5-0.5
				s-0.5,0.22363-0.5,0.5v2.37207C173.54631,112.09542,173.76994,112.31905,174.04631,112.31905z"/>
		</g>
		<g>
			<path fill="#685665" d="M176.48088,112.31905c0.27637,0,0.5-0.22363,0.5-0.5v-2.37207c0-0.27637-0.22363-0.5-0.5-0.5
				s-0.5,0.22363-0.5,0.5v2.37207C175.98088,112.09542,176.20451,112.31905,176.48088,112.31905z"/>
		</g>
		<g>
			<path fill="#685665" d="M178.91545,112.31905c0.27637,0,0.5-0.22363,0.5-0.5v-2.37207c0-0.27637-0.22363-0.5-0.5-0.5
				s-0.5,0.22363-0.5,0.5v2.37207C178.41545,112.09542,178.63908,112.31905,178.91545,112.31905z"/>
		</g>
		<g>
			<rect x="7.0385" y="164.58569" fill="#685665" width="255.87793" height="1"/>
		</g>
		<g>
			<path fill="#685665" d="M11.4965,75.8713c-0.27637,0-0.5,0.22363-0.5,0.5v34.30127c0,0.27637,0.22363,0.5,0.5,0.5
				s0.5-0.22363,0.5-0.5V76.3713C11.9965,76.09493,11.77287,75.8713,11.4965,75.8713z"/>
		</g>
		<g>
			<path fill="#685665" d="M15.65079,75.8713c-0.27637,0-0.5,0.22363-0.5,0.5v34.30127c0,0.27637,0.22363,0.5,0.5,0.5
				s0.5-0.22363,0.5-0.5V76.3713C16.15079,76.09493,15.92716,75.8713,15.65079,75.8713z"/>
		</g>
		<g>
			<path fill="#685665" d="M19.80607,75.8713c-0.27637,0-0.5,0.22363-0.5,0.5v34.30127c0,0.27637,0.22363,0.5,0.5,0.5
				s0.5-0.22363,0.5-0.5V76.3713C20.30607,76.09493,20.08244,75.8713,19.80607,75.8713z"/>
		</g>
		<g>
			<path fill="#685665" d="M23.96037,75.8713c-0.27637,0-0.5,0.22363-0.5,0.5v34.30127c0,0.27637,0.22363,0.5,0.5,0.5
				s0.5-0.22363,0.5-0.5V76.3713C24.46037,76.09493,24.23673,75.8713,23.96037,75.8713z"/>
		</g>
		<g>
			<path fill="#685665" d="M28.11564,75.8713c-0.27637,0-0.5,0.22363-0.5,0.5v34.30127c0,0.27637,0.22363,0.5,0.5,0.5
				s0.5-0.22363,0.5-0.5V76.3713C28.61564,76.09493,28.39201,75.8713,28.11564,75.8713z"/>
		</g>
		<g>
			<path fill="#685665" d="M202.37737,92.4714v-7.1123c0-0.27637-0.22363-0.5-0.5-0.5s-0.5,0.22363-0.5,0.5v7.1123
				c0,0.27637,0.22363,0.5,0.5,0.5S202.37737,92.74776,202.37737,92.4714z"/>
		</g>
		<g>
			<path fill="#685665" d="M199.04826,86.31612c-0.27637,0-0.5,0.22363-0.5,0.5V110.988c0,0.27637,0.22363,0.5,0.5,0.5
				s0.5-0.22363,0.5-0.5V86.81612C199.54826,86.53976,199.32463,86.31612,199.04826,86.31612z"/>
		</g>
		<g>
			<path fill="#685665" d="M204.90764,92.9714c0.27637,0,0.5-0.22363,0.5-0.5v-3.89795c0-0.27637-0.22363-0.5-0.5-0.5
				s-0.5,0.22363-0.5,0.5v3.89795C204.40764,92.74776,204.63127,92.9714,204.90764,92.9714z"/>
		</g>
		<g>
			<path fill="#685665" d="M207.87737,92.9714c0.27637,0,0.5-0.22363,0.5-0.5v-3.89795c0-0.27637-0.22363-0.5-0.5-0.5
				s-0.5,0.22363-0.5,0.5v3.89795C207.37737,92.74776,207.601,92.9714,207.87737,92.9714z"/>
		</g>
		<g>
			<path fill="#685665" d="M211.19768,92.9714c0.27637,0,0.5-0.22363,0.5-0.5v-8.82666c0-0.27637-0.22363-0.5-0.5-0.5
				s-0.5,0.22363-0.5,0.5v8.82666C210.69768,92.74776,210.92131,92.9714,211.19768,92.9714z"/>
		</g>
		<g>
			<path fill="#685665" d="M218.9174,87.81954c0.27637,0,0.5-0.22363,0.5-0.5v-3.6748c0-0.27637-0.22363-0.5-0.5-0.5
				s-0.5,0.22363-0.5,0.5v3.6748C218.4174,87.59591,218.64104,87.81954,218.9174,87.81954z"/>
		</g>
		<g>
			<path fill="#685665" d="M221.19279,87.81954c0.27637,0,0.5-0.22363,0.5-0.5v-3.6748c0-0.27637-0.22363-0.5-0.5-0.5
				s-0.5,0.22363-0.5,0.5v3.6748C220.69279,87.59591,220.91643,87.81954,221.19279,87.81954z"/>
		</g>
		<g>
			<path fill="#685665" d="M196.07854,98.91329c-0.27637,0-0.5,0.22363-0.5,0.5V110.988c0,0.27637,0.22363,0.5,0.5,0.5
				s0.5-0.22363,0.5-0.5V99.41329C196.57854,99.13692,196.3549,98.91329,196.07854,98.91329z"/>
		</g>
		<g>
			<path fill="#685665" d="M247.99065,93.10763c0.27637,0,0.5-0.22363,0.5-0.5v-2.37207c0-0.27637-0.22363-0.5-0.5-0.5
				s-0.5,0.22363-0.5,0.5v2.37207C247.49065,92.884,247.71428,93.10763,247.99065,93.10763z"/>
		</g>
		<g>
			<path fill="#685665" d="M250.42522,93.10763c0.27637,0,0.5-0.22363,0.5-0.5v-2.37207c0-0.27637-0.22363-0.5-0.5-0.5
				s-0.5,0.22363-0.5,0.5v2.37207C249.92522,92.884,250.14885,93.10763,250.42522,93.10763z"/>
		</g>
		<g>
			<path fill="#685665" d="M252.85979,93.10763c0.27637,0,0.5-0.22363,0.5-0.5v-2.37207c0-0.27637-0.22363-0.5-0.5-0.5
				s-0.5,0.22363-0.5,0.5v2.37207C252.35979,92.884,252.58342,93.10763,252.85979,93.10763z"/>
		</g>
		<g>
			<path fill="#685665" d="M255.29338,93.10763c0.27637,0,0.5-0.22363,0.5-0.5v-2.37207c0-0.27637-0.22363-0.5-0.5-0.5
				s-0.5,0.22363-0.5,0.5v2.37207C254.79338,92.884,255.01701,93.10763,255.29338,93.10763z"/>
		</g>
		<g>
			<path fill="#685665" d="M247.99065,111.488c0.27637,0,0.5-0.22363,0.5-0.5V95.76144c0-0.27637-0.22363-0.5-0.5-0.5
				s-0.5,0.22363-0.5,0.5V110.988C247.49065,111.26437,247.71428,111.488,247.99065,111.488z"/>
		</g>
		<g>
			<path fill="#685665" d="M250.42522,111.488c0.27637,0,0.5-0.22363,0.5-0.5V95.76144c0-0.27637-0.22363-0.5-0.5-0.5
				s-0.5,0.22363-0.5,0.5V110.988C249.92522,111.26437,250.14885,111.488,250.42522,111.488z"/>
		</g>
		<g>
			<path fill="#685665" d="M252.85979,111.488c0.27637,0,0.5-0.22363,0.5-0.5V95.76144c0-0.27637-0.22363-0.5-0.5-0.5
				s-0.5,0.22363-0.5,0.5V110.988C252.35979,111.26437,252.58342,111.488,252.85979,111.488z"/>
		</g>
		<g>
			<path fill="#685665" d="M255.29338,111.488c0.27637,0,0.5-0.22363,0.5-0.5V95.76144c0-0.27637-0.22363-0.5-0.5-0.5
				s-0.5,0.22363-0.5,0.5V110.988C254.79338,111.26437,255.01701,111.488,255.29338,111.488z"/>
		</g>
		<g>
			<path fill="#685665" d="M176.78264,80.3337c0.27637,0,0.5-0.22363,0.5-0.5v-9.93994c0-0.27637-0.22363-0.5-0.5-0.5
				s-0.5,0.22363-0.5,0.5v9.93994C176.28264,80.11007,176.50627,80.3337,176.78264,80.3337z"/>
		</g>
		<g>
			<path fill="#685665" d="M179.43108,80.3337c0.27637,0,0.5-0.22363,0.5-0.5v-9.93994c0-0.27637-0.22363-0.5-0.5-0.5
				s-0.5,0.22363-0.5,0.5v9.93994C178.93108,80.11007,179.15471,80.3337,179.43108,80.3337z"/>
		</g>
		<g>
			<path fill="#685665" d="M182.08049,80.3337c0.27637,0,0.5-0.22363,0.5-0.5v-9.93994c0-0.27637-0.22363-0.5-0.5-0.5
				s-0.5,0.22363-0.5,0.5v9.93994C181.58049,80.11007,181.80412,80.3337,182.08049,80.3337z"/>
		</g>
	</g>
</g>
</svg>
